<svg xmlns="http://www.w3.org/2000/svg" width="573.476" height="521.075"><defs><clipPath id="a"><path d="M390.78 120.9h64.92V150h-64.92v-29.1z"/></clipPath><clipPath id="b"><path d="M390.78 249h64.92v29.1h-64.92V249z"/></clipPath><clipPath id="c"><path d="M390.78 377.1h64.92v29.1h-64.92v-29.1z"/></clipPath><clipPath id="d"><path d="M390.78 505.2h64.92v29.1h-64.92v-29.1z"/></clipPath></defs><path d="M20.938 174.452V472.15h531.6V174.452h-531.6z" fill="#f2f8fc"/><path d="M20.938 472.15h531.6V174.452h-531.6V472.15z" fill="none" stroke="#0070c0" stroke-linecap="round" stroke-linejoin="round" stroke-miterlimit="10" stroke-dasharray="1.00028179,2.00001032" stroke-width="1.875"/><path d="M20.938 41.567v79.731h531.6v-79.73h-531.6z" fill="#fff6f5"/><path d="M20.938 41.567v79.731h531.6v-79.73h-531.6z" fill="none" stroke="#c70039" stroke-linecap="round" stroke-linejoin="round" stroke-miterlimit="10" stroke-width="1.875"/><path d="M306.562 72.875c0 1.12-.934 2.116-2.117 2.116-.933 0-1.68.249-2.365.747-.747.498-1.369 1.182-1.867 1.93-.934 1.244-1.37 2.738-1.556 3.298v7.531c0 1.12-.996 2.116-2.24 2.116-1.121 0-2.055-.996-2.055-2.116V72.875c0-1.12.934-2.054 2.054-2.054 1.245 0 2.241.933 2.241 2.054v.31c.187-.31.498-.622.81-.808 1.306-.872 2.987-1.619 4.978-1.556 1.183 0 2.117.933 2.117 2.054M305.38 80.717c.061-5.415 4.231-9.959 9.709-9.959 5.103 0 9.211 3.86 9.523 9.212v.56c-.187.934-.996 1.556-2.117 1.556h-12.572c.186.934.622 1.992 1.369 2.614.81.996 2.365 1.68 3.797 1.805 1.369.125 3.112-.249 4.108-.996.809-.87 2.427-.746 2.987-.124.498.56.872 1.743 0 2.614-1.992 1.743-4.294 2.614-7.095 2.614-5.478-.062-9.648-4.543-9.71-9.896zm4.294-1.93h11.265c-.435-1.618-2.427-3.983-5.85-4.232-3.361.187-5.042 2.552-5.415 4.232M344.778 88.435c0 1.182-.934 2.178-2.117 2.178-1.058 0-1.929-.809-2.116-1.743-1.494 1.059-3.36 1.743-5.352 1.743-5.353 0-9.648-4.543-9.648-9.896 0-5.415 4.295-9.959 9.648-9.959 1.929 0 3.858.685 5.29 1.68v-7.406c0-1.182.934-2.116 2.178-2.116 1.183 0 2.117.934 2.117 2.116v23.403zm-9.585-13.32a5.04 5.04 0 0 0-3.735 1.618c-.996.996-1.556 2.428-1.556 3.984 0 1.494.56 2.925 1.556 3.921a5.04 5.04 0 0 0 3.735 1.618c1.431 0 2.738-.56 3.672-1.618a5.609 5.609 0 0 0 1.618-3.921c0-1.556-.622-2.988-1.618-3.984-.934-1.058-2.24-1.618-3.672-1.618M352.371 65.841a2.165 2.165 0 0 1-2.178 2.179c-1.183 0-2.117-.996-2.117-2.179v-.809c0-1.182.934-2.116 2.117-2.116 1.244 0 2.178.934 2.178 2.116v.81zm0 7.158v15.436a2.165 2.165 0 0 1-2.178 2.178c-1.183 0-2.117-.996-2.117-2.178V72.999c0-1.245.934-2.178 2.117-2.178 1.244 0 2.178.933 2.178 2.178M355.047 84.95c.747-.997 2.117-1.121 2.988-.312 1.058.871 2.8 1.743 4.357 1.743 1.12 0 2.054-.374 2.676-.747.56-.498.747-.934.747-1.245 0-.187 0-.249-.124-.373-.063-.125-.187-.25-.498-.498-.56-.374-1.743-.81-3.175-1.058h-.062c-1.182-.25-2.427-.56-3.423-1.058-1.058-.498-2.054-1.245-2.739-2.303-.435-.685-.684-1.556-.684-2.49 0-1.805 1.058-3.361 2.365-4.357a8.616 8.616 0 0 1 4.855-1.494c2.738 0 4.668 1.37 5.912 2.241.996.622 1.245 1.93.685 2.925-.685.934-1.992 1.183-2.925.56-1.307-.87-2.428-1.493-3.672-1.493-.996 0-1.868.31-2.366.684-.498.374-.622.747-.622.934 0 .187 0 .187.062.311.062.062.125.25.436.436.498.311 1.556.685 2.863.933l.062.063h.063a12.01 12.01 0 0 1 3.672 1.12c1.058.436 2.116 1.245 2.8 2.303a5.06 5.06 0 0 1 .747 2.614c0 1.992-1.058 3.61-2.49 4.606a8.94 8.94 0 0 1-5.165 1.618c-3.05-.062-5.477-1.494-7.033-2.738-.872-.747-.996-2.117-.312-2.926" fill="#636465"/><path d="M279.922 93.476c-2.8 1.494-17.24 7.407-20.29 8.963-3.05 1.618-4.793 1.618-7.22.436-2.427-1.12-17.739-7.345-20.54-8.652-1.369-.622-2.116-1.245-2.116-1.743v-5.29s19.98-4.295 23.216-5.477c3.237-1.183 4.357-1.183 7.096-.187 2.738.996 19.17 3.983 21.908 4.98v5.165c0 .498-.622 1.12-2.054 1.805" fill="#a41e11"/><path d="M279.922 88.248c-2.8 1.432-17.24 7.344-20.29 8.963-3.05 1.556-4.793 1.556-7.22.435-2.427-1.182-17.739-7.406-20.54-8.713-2.738-1.307-2.8-2.179-.124-3.237 2.739-1.058 17.988-7.095 21.224-8.216 3.237-1.182 4.357-1.182 7.096-.186 2.738.995 17.116 6.66 19.792 7.655 2.739.996 2.801 1.805.062 3.299" fill="#d82c20"/><path d="M279.922 84.887c-2.8 1.494-17.24 7.407-20.29 8.963-3.05 1.618-4.793 1.618-7.22.435-2.427-1.12-17.739-7.344-20.54-8.651-1.369-.622-2.116-1.183-2.116-1.743v-5.29s19.98-4.295 23.216-5.478c3.237-1.12 4.357-1.182 7.096-.186 2.738.996 19.17 3.983 21.908 4.979v5.166c0 .498-.622 1.12-2.054 1.805" fill="#a41e11"/><path d="M279.922 79.659c-2.8 1.431-17.24 7.344-20.29 8.963-3.05 1.618-4.793 1.556-7.22.435-2.427-1.182-17.739-7.344-20.54-8.714-2.738-1.307-2.8-2.178-.124-3.236 2.739-1.058 17.988-7.096 21.224-8.216 3.237-1.182 4.357-1.182 7.096-.187 2.738.996 17.116 6.66 19.792 7.718 2.739.934 2.801 1.743.062 3.237" fill="#d82c20"/><path d="M279.922 75.987c-2.8 1.493-17.24 7.406-20.29 9.025-3.05 1.556-4.793 1.556-7.22.373-2.427-1.12-17.739-7.344-20.54-8.652-1.369-.684-2.116-1.182-2.116-1.742v-5.229s19.98-4.356 23.216-5.539c3.237-1.183 4.357-1.183 7.096-.187 2.738.996 19.17 3.921 21.908 4.917v5.229c0 .497-.622 1.058-2.054 1.805" fill="#a41e11"/><path d="M279.922 70.758c-2.8 1.432-17.24 7.345-20.29 8.963-3.05 1.618-4.793 1.556-7.22.436-2.427-1.183-17.739-7.345-20.54-8.714-2.738-1.307-2.8-2.24-.124-3.299 2.739-1.058 17.988-7.033 21.224-8.153 3.237-1.183 4.357-1.245 7.096-.187 2.738.996 17.116 6.66 19.792 7.656 2.739.995 2.801 1.805.062 3.298" fill="#d82c20"/><path d="M262.682 65.655l-4.544.498-.996 2.427-1.618-2.739-5.228-.435 3.921-1.432-1.183-2.116 3.61 1.37 3.486-1.121-.934 2.24M256.893 77.48l-8.464-3.547 12.074-1.805M251.665 69.514c0 1.369-2.925 2.49-6.473 2.49s-6.473-1.121-6.473-2.49c0-1.37 2.925-2.49 6.473-2.49s6.473 1.12 6.473 2.49" fill="#fff"/><path d="M268.034 66.34l7.158 2.8-7.158 2.863" fill="#7a0c00"/><path d="M260.13 69.451l7.904-3.112v5.664l-.746.25" fill="#ad2115"/><path d="M87.411 194.369v-56.017" fill="none" stroke="#404040" stroke-width="2.8125" stroke-linecap="round" stroke-linejoin="round" stroke-miterlimit="10"/><path d="M93.573 192.813l-6.162 18.548-6.224-18.548h12.386M81.187 139.908l6.224-18.61 6.162 18.61H81.187" fill="#404040" fill-rule="evenodd"/><path d="M220.296 194.369v-56.017" fill="none" stroke="#404040" stroke-width="2.8125" stroke-linecap="round" stroke-linejoin="round" stroke-miterlimit="10"/><path d="M226.457 192.813l-6.161 18.548-6.224-18.548h12.385M214.072 139.908l6.224-18.61 6.162 18.61h-12.386" fill="#404040" fill-rule="evenodd"/><path d="M353.18 194.369v-56.017" fill="none" stroke="#404040" stroke-width="2.8125" stroke-linecap="round" stroke-linejoin="round" stroke-miterlimit="10"/><path d="M359.342 192.813l-6.162 18.548-6.162-18.548h12.324M347.018 139.908l6.162-18.61 6.162 18.61h-12.324" fill="#404040" fill-rule="evenodd"/><path d="M486.065 194.369v-56.017" fill="none" stroke="#404040" stroke-width="2.8125" stroke-linecap="round" stroke-linejoin="round" stroke-miterlimit="10"/><path d="M492.289 192.813l-6.224 18.548-6.162-18.548h12.386M479.903 139.908l6.162-18.61 6.224 18.61h-12.386" fill="#404040" fill-rule="evenodd"/><text y="36.979" x="141.976" style="-inkscape-font-specification:ArialMT" transform="matrix(1.88 0 0 1.88 -34.083 -38.6)" font-weight="400" font-size="8" font-family="Arial" fill="#404040"><tspan y="36.979" x="141.9758 148.6414 153.091 157.09261 161.09421 165.54381 169.99339 174.44301 176.66859 182.0062 184.6718 189.1214 193.123 197.5726">Message Broker</tspan></text><text y="55.834" x="-110.673" style="-inkscape-font-specification:ArialMT" transform="matrix(0 -1.88 1.88 0 -34.083 -38.6)" font-weight="400" font-size="8" font-family="Arial" fill="#404040"><tspan y="55.834" x="-110.6728 -105.7896 -100.0184">TCP</tspan></text><path d="M52.867 251.257h69.088c2.987 0 5.353-2.365 5.353-5.29l-.063-.063v-29.19h.063c0-2.926-2.366-5.291-5.353-5.291v-.062H52.867v.062a5.286 5.286 0 0 0-5.29 5.29h-.062v29.191l.062.063a5.286 5.286 0 0 0 5.29 5.29" fill="#fff" fill-rule="evenodd"/><path d="M52.867 251.257h69.088c2.987 0 5.353-2.365 5.353-5.29l-.063-.063v-29.19h.063c0-2.926-2.366-5.291-5.353-5.291v-.062H52.867v.062a5.286 5.286 0 0 0-5.29 5.29h-.062v29.191l.062.063a5.286 5.286 0 0 0 5.29 5.29z" fill="none" stroke="#404040" stroke-linecap="round" stroke-linejoin="round" stroke-miterlimit="10" stroke-width="1.875"/><text y="146.358" x="55.237" style="-inkscape-font-specification:ArialMT" transform="matrix(1.88 0 0 1.88 -34.083 -38.6)" font-weight="400" font-size="8" font-family="Arial" fill="#404040"><tspan y="146.358" x="55.236801 59.236 63.683201 67.682396 72.129601">socat</tspan></text><path d="M87.411 327.253V268.25" fill="none" stroke="#404040" stroke-width="2.8125" stroke-linecap="round" stroke-linejoin="round" stroke-miterlimit="10"/><path d="M93.573 325.697l-6.162 18.548-6.224-18.548h12.386M81.187 269.805l6.224-18.548 6.162 18.548H81.187" fill="#404040" fill-rule="evenodd"/><path d="M185.752 251.257h69.087c2.988 0 5.353-2.365 5.353-5.29l-.062-.063v-29.19h.062c0-2.926-2.365-5.291-5.353-5.291v-.062h-69.087v.062a5.286 5.286 0 0 0-5.29 5.29h-.063v29.191l.062.063a5.286 5.286 0 0 0 5.29 5.29" fill="#fff" fill-rule="evenodd"/><path d="M185.752 251.257h69.087c2.988 0 5.353-2.365 5.353-5.29l-.062-.063v-29.19h.062c0-2.926-2.365-5.291-5.353-5.291v-.062h-69.087v.062a5.286 5.286 0 0 0-5.29 5.29h-.063v29.191l.062.063a5.286 5.286 0 0 0 5.29 5.29z" fill="none" stroke="#404040" stroke-linecap="round" stroke-linejoin="round" stroke-miterlimit="10" stroke-width="1.875"/><text y="146.358" x="126.109" style="-inkscape-font-specification:ArialMT" transform="matrix(1.88 0 0 1.88 -34.083 -38.6)" font-weight="400" font-size="8" font-family="Arial" fill="#404040"><tspan y="146.358" x="126.1085 130.1077 134.5549 138.55409 143.0013">socat</tspan></text><path d="M220.296 327.253V268.25" fill="none" stroke="#404040" stroke-width="2.8125" stroke-linecap="round" stroke-linejoin="round" stroke-miterlimit="10"/><path d="M226.457 325.697l-6.161 18.548-6.224-18.548h12.385M214.072 269.805l6.224-18.548 6.162 18.548h-12.386" fill="#404040" fill-rule="evenodd"/><path d="M318.636 251.257h69.15a5.286 5.286 0 0 0 5.29-5.29v-29.254a5.286 5.286 0 0 0-5.29-5.29l-.062-.062h-69.088v.062a5.286 5.286 0 0 0-5.29 5.29h-.062v29.191l.062.063a5.286 5.286 0 0 0 5.29 5.29" fill="#fff" fill-rule="evenodd"/><path d="M318.636 251.257h69.15a5.286 5.286 0 0 0 5.29-5.29v-29.254a5.286 5.286 0 0 0-5.29-5.29l-.062-.062h-69.088v.062a5.286 5.286 0 0 0-5.29 5.29h-.062v29.191l.062.063a5.286 5.286 0 0 0 5.29 5.29z" fill="none" stroke="#404040" stroke-linecap="round" stroke-linejoin="round" stroke-miterlimit="10" stroke-width="1.875"/><text y="146.358" x="196.98" style="-inkscape-font-specification:ArialMT" transform="matrix(1.88 0 0 1.88 -34.083 -38.6)" font-weight="400" font-size="8" font-family="Arial" fill="#404040"><tspan y="146.358" x="196.9803 200.9675 205.44749 209.43471 213.8699">socat</tspan></text><path d="M353.18 327.253V268.25" fill="none" stroke="#404040" stroke-width="2.8125" stroke-linecap="round" stroke-linejoin="round" stroke-miterlimit="10"/><path d="M359.342 325.697l-6.162 18.548-6.162-18.548h12.324M347.018 269.805l6.162-18.548 6.162 18.548h-12.324" fill="#404040" fill-rule="evenodd"/><path d="M451.52 251.257h69.15a5.286 5.286 0 0 0 5.291-5.29v-29.254a5.286 5.286 0 0 0-5.29-5.29l-.063-.062h-69.087v.062a5.286 5.286 0 0 0-5.29 5.29v29.254a5.286 5.286 0 0 0 5.29 5.29" fill="#fff" fill-rule="evenodd"/><path d="M451.52 251.257h69.15a5.286 5.286 0 0 0 5.291-5.29v-29.254a5.286 5.286 0 0 0-5.29-5.29l-.063-.062h-69.087v.062a5.286 5.286 0 0 0-5.29 5.29v29.254a5.286 5.286 0 0 0 5.29 5.29z" fill="none" stroke="#404040" stroke-linecap="round" stroke-linejoin="round" stroke-miterlimit="10" stroke-width="1.875"/><text y="146.358" x="267.852" style="-inkscape-font-specification:ArialMT" transform="matrix(1.88 0 0 1.88 -34.083 -38.6)" font-weight="400" font-size="8" font-family="Arial" fill="#404040"><tspan y="146.358" x="267.85199 271.8512 276.2984 280.29761 284.74481">socat</tspan></text><path d="M486.065 327.253V268.25" fill="none" stroke="#404040" stroke-width="2.8125" stroke-linecap="round" stroke-linejoin="round" stroke-miterlimit="10"/><path d="M492.289 325.697l-6.224 18.548-6.162-18.548h12.386M479.903 269.805l6.162-18.548 6.224 18.548h-12.386" fill="#404040" fill-rule="evenodd"/><text y="55.834" x="-194.291" style="-inkscape-font-specification:ArialMT" transform="matrix(0 -1.88 1.88 0 -34.083 -38.6)" font-weight="400" font-size="8" font-family="Arial" fill="#404040"><tspan y="55.834" x="-194.2914 -188.9538 -186.7282 -184.06261 -179.61301 -175.16341 -168.4978">Streams</tspan></text><path d="M52.867 423.976h69.088v.062a5.313 5.313 0 0 0 5.353-5.353h-.063v-69.087h.063c0-2.925-2.366-5.29-5.353-5.29v-.063H52.867v.062a5.286 5.286 0 0 0-5.29 5.29h-.062v69.088h.062c0 2.988 2.365 5.353 5.29 5.353" fill="#fff" fill-rule="evenodd"/><path d="M52.867 423.976h69.088v.062a5.313 5.313 0 0 0 5.353-5.353h-.063v-69.087h.063c0-2.925-2.366-5.29-5.353-5.29v-.063H52.867v.062a5.286 5.286 0 0 0-5.29 5.29h-.062v69.088h.062c0 2.988 2.365 5.353 5.29 5.353v-.062z" fill="none" stroke="#0474be" stroke-linecap="round" stroke-linejoin="round" stroke-miterlimit="10" stroke-width="1.875"/><path d="M76.83 406.673l1.618-2.178 10.146-30.56c-3.112 4.232-11.764 32.738-11.764 32.738" fill="#0474be"/><g transform="matrix(0 1.03735 1.03735 0 -52.756 -57.894)" clip-path="url(#a)"><path d="M402.12 137.16c.36-.3.72-.54 1.14-.78 3.36-1.68 8.58-1.5 8.58-1.5-1.02-.66-3.72-.6-5.88-.36 5.7-3.78 10.92-7.08 15.96-8.16 3.36-.78 6.9-.12 6.9-.12l-3.36-1.08c14.04-4.26 23.16-1.44 23.16-1.44l6.96-1.26-2.7 1.56-2.88.78-2.34.78c-9.12 10.26-24 15.06-24 15.06l1.26-4.56c-4.86 7.14-20.46 10.14-20.46 10.14-15.24 3.66-4.08-7.62-2.34-9.06zm43.62-10.92l-.24-.9s-25.14 7.92-29.22 10.92l29.46-10.02" fill="#0474be"/></g><text y="260.449" x="48.996" style="-inkscape-font-specification:ArialMT" transform="matrix(1.88 0 0 1.88 -34.083 -38.6)" font-weight="400" font-size="8" font-family="Arial" fill="#404040"><tspan y="260.449" x="48.996101 54.330502 58.776901 63.223301 64.997704 69.444099 73.890503 76.116104">Engine 1</tspan></text><path d="M185.752 423.976h69.087v.062a5.313 5.313 0 0 0 5.353-5.353h-.062v-69.087h.062c0-2.925-2.365-5.29-5.353-5.29v-.063h-69.087v.062a5.286 5.286 0 0 0-5.29 5.29h-.063v69.088h.062c0 2.988 2.366 5.353 5.29 5.353" fill="#fff" fill-rule="evenodd"/><path d="M185.752 423.976h69.087v.062a5.313 5.313 0 0 0 5.353-5.353h-.062v-69.087h.062c0-2.925-2.365-5.29-5.353-5.29v-.063h-69.087v.062a5.286 5.286 0 0 0-5.29 5.29h-.063v69.088h.062c0 2.988 2.366 5.353 5.29 5.353v-.062z" fill="none" stroke="#0474be" stroke-linecap="round" stroke-linejoin="round" stroke-miterlimit="10" stroke-width="1.875"/><path d="M209.715 406.673l1.618-2.178 10.145-30.56c-3.112 4.232-11.763 32.738-11.763 32.738" fill="#0474be"/><g transform="matrix(0 1.03735 1.03735 0 -52.756 -57.894)" clip-path="url(#b)"><path d="M402.12 265.26c.36-.3.72-.54 1.14-.78 3.36-1.68 8.58-1.5 8.58-1.5-1.02-.66-3.72-.6-5.88-.36 5.7-3.78 10.92-7.08 15.96-8.16 3.36-.78 6.9-.12 6.9-.12l-3.36-1.08c14.04-4.26 23.16-1.44 23.16-1.44l6.96-1.26-2.7 1.56-2.88.78-2.34.78c-9.12 10.26-24 15.06-24 15.06l1.26-4.56c-4.86 7.14-20.46 10.14-20.46 10.14-15.24 3.66-4.08-7.62-2.34-9.06zm43.62-10.92l-.24-.9s-25.14 7.92-29.22 10.92l29.46-10.02" fill="#0474be"/></g><path d="M318.636 423.976h69.088l.062.062c2.925 0 5.29-2.365 5.29-5.353v-69.087a5.286 5.286 0 0 0-5.29-5.29l-.062-.063h-69.088v.062a5.286 5.286 0 0 0-5.29 5.29h-.062v69.088h.062c0 2.988 2.365 5.353 5.29 5.353" fill="#fff" fill-rule="evenodd"/><path d="M318.636 423.976h69.088l.062.062c2.925 0 5.29-2.365 5.29-5.353v-69.087a5.286 5.286 0 0 0-5.29-5.29l-.062-.063h-69.088v.062a5.286 5.286 0 0 0-5.29 5.29h-.062v69.088h.062c0 2.988 2.365 5.353 5.29 5.353v-.062z" fill="none" stroke="#0474be" stroke-linecap="round" stroke-linejoin="round" stroke-miterlimit="10" stroke-width="1.875"/><path d="M342.6 406.673l1.617-2.178 10.146-30.56c-3.112 4.232-11.764 32.738-11.764 32.738" fill="#0474be"/><g transform="matrix(0 1.03735 1.03735 0 -52.756 -57.894)" clip-path="url(#c)"><path d="M402.12 393.36c.36-.3.72-.54 1.14-.78 3.36-1.68 8.58-1.5 8.58-1.5-1.02-.66-3.72-.6-5.88-.36 5.7-3.78 10.92-7.08 15.96-8.16 3.36-.78 6.9-.12 6.9-.12l-3.36-1.08c14.04-4.26 23.16-1.44 23.16-1.44l6.96-1.26-2.7 1.56-2.88.78-2.34.78c-9.12 10.26-24 15.06-24 15.06l1.26-4.56c-4.86 7.14-20.46 10.14-20.46 10.14-15.24 3.66-4.08-7.62-2.34-9.06zm43.62-10.92l-.24-.9s-25.14 7.92-29.22 10.92l29.46-10.02" fill="#0474be"/></g><path d="M451.52 423.976h69.088l.063.062c2.925 0 5.29-2.365 5.29-5.353v-69.087a5.286 5.286 0 0 0-5.29-5.29l-.063-.063h-69.087v.062a5.286 5.286 0 0 0-5.29 5.29v69.088c0 2.988 2.365 5.353 5.29 5.353" fill="#fff" fill-rule="evenodd"/><path d="M451.52 423.976h69.088l.063.062c2.925 0 5.29-2.365 5.29-5.353v-69.087a5.286 5.286 0 0 0-5.29-5.29l-.063-.063h-69.087v.062a5.286 5.286 0 0 0-5.29 5.29v69.088c0 2.988 2.365 5.353 5.29 5.353v-.062z" fill="none" stroke="#0474be" stroke-linecap="round" stroke-linejoin="round" stroke-miterlimit="10" stroke-width="1.875"/><path d="M475.484 406.673l1.618-2.178 10.145-30.56c-3.112 4.232-11.763 32.738-11.763 32.738" fill="#0474be"/><g transform="matrix(0 1.03735 1.03735 0 -52.756 -57.894)" clip-path="url(#d)"><path d="M402.12 521.46c.36-.3.72-.54 1.14-.78 3.36-1.68 8.58-1.5 8.58-1.5-1.02-.66-3.72-.6-5.88-.36 5.7-3.78 10.92-7.08 15.96-8.16 3.36-.78 6.9-.12 6.9-.12l-3.36-1.08c14.04-4.26 23.16-1.44 23.16-1.44l6.96-1.26-2.7 1.56-2.88.78-2.34.78c-9.12 10.26-24 15.06-24 15.06l1.26-4.56c-4.86 7.14-20.46 10.14-20.46 10.14-15.24 3.66-4.08-7.62-2.34-9.06zm43.62-10.92l-.24-.9s-25.14 7.92-29.22 10.92l29.46-10.02" fill="#0474be"/></g><text y="260.449" x="119.868" style="-inkscape-font-specification:ArialMT" transform="matrix(1.88 0 0 1.88 -34.083 -38.6)" font-weight="400" font-size="8" font-family="Arial" fill="#404040"><tspan y="260.449" x="119.8678 125.207 129.6582 134.10941 135.8886 140.3398 144.791 147.0166">Engine 2</tspan></text><text y="260.449" x="190.739" style="-inkscape-font-specification:ArialMT" transform="matrix(1.88 0 0 1.88 -34.083 -38.6)" font-weight="400" font-size="8" font-family="Arial" fill="#404040"><tspan y="260.449" x="190.7395 196.0787 200.52989 204.98109 206.7603 211.2115 215.6627 217.88831">Engine 3</tspan></text><text y="260.449" x="260.947" style="-inkscape-font-specification:ArialMT" transform="matrix(1.88 0 0 1.88 -34.083 -38.6)" font-weight="400" font-size="8" font-family="Arial" fill="#404040"><tspan y="260.449" x="260.94739 266.28659 270.73779 275.189 276.9682 281.4194 285.87061 288.09619">Engine N</tspan></text><text y="286.142" x="105.76" style="-inkscape-font-specification:ArialMT" transform="matrix(1.88 0 0 1.88 -34.083 -38.6)" font-weight="400" font-size="8" font-family="Arial" fill="#404040"><tspan y="286.142" x="105.7599 111.5319 113.3039 117.3207 119.5463 122.2063 123.9783 128.4583 132.9023 135.1223 139.5663 144.0103 146.2359 151.5679 157.8103 163.1423 168.02631 173.35829 175.58389 180.91589 182.6879 189.3479 193.7919 195.5639 200.0079 202.22791 206.67191 209.3607 211.5863 214.24629 219.57829 224.91029 227.13029 233.7903">Distributed POETS Simulator (PSIM)</tspan></text></svg>