<?xml version="1.0" encoding="UTF-8" standalone="no"?>
<svg
   xmlns:dc="http://purl.org/dc/elements/1.1/"
   xmlns:cc="http://creativecommons.org/ns#"
   xmlns:rdf="http://www.w3.org/1999/02/22-rdf-syntax-ns#"
   xmlns:svg="http://www.w3.org/2000/svg"
   xmlns="http://www.w3.org/2000/svg"
   xmlns:sodipodi="http://sodipodi.sourceforge.net/DTD/sodipodi-0.dtd"
   xmlns:inkscape="http://www.inkscape.org/namespaces/inkscape"
   viewBox="0 0 573.4375 520.98267"
   height="520.98267"
   width="573.4375"
   xml:space="preserve"
   version="1.1"
   id="svg2"
   inkscape:version="0.91 r13725"
   sodipodi:docname="diagram.svg"><sodipodi:namedview
     pagecolor="#ffffff"
     bordercolor="#666666"
     borderopacity="1"
     objecttolerance="10"
     gridtolerance="10"
     guidetolerance="10"
     inkscape:pageopacity="0"
     inkscape:pageshadow="2"
     inkscape:window-width="640"
     inkscape:window-height="480"
     id="namedview136"
     showgrid="false"
     inkscape:zoom="1.8789205"
     inkscape:cx="173.03044"
     inkscape:cy="161.83771"
     inkscape:current-layer="svg2"
     fit-margin-top="20"
     fit-margin-left="20"
     fit-margin-right="20"
     fit-margin-bottom="20" /><metadata
     id="metadata8"><rdf:RDF><cc:Work
         rdf:about=""><dc:format>image/svg+xml</dc:format><dc:type
           rdf:resource="http://purl.org/dc/dcmitype/StillImage" /><dc:title></dc:title></cc:Work></rdf:RDF></metadata><defs
     id="defs6"><clipPath
       id="clipPath28"
       clipPathUnits="userSpaceOnUse"><path
         id="path30"
         d="m 0,0 374.2,0 0,124.76 L 0,124.76 0,0 Z"
         inkscape:connector-curvature="0" /></clipPath><clipPath
       id="clipPath166"
       clipPathUnits="userSpaceOnUse"><path
         id="path168"
         d="m 0,0 25.543,0 0,51.055 L 0,51.055 0,0 Z"
         inkscape:connector-curvature="0" /></clipPath><clipPath
       id="clipPath192"
       clipPathUnits="userSpaceOnUse"><path
         id="path194"
         d="m 0,0 25.543,0 0,51.055 L 0,51.055 0,0 Z"
         inkscape:connector-curvature="0" /></clipPath><clipPath
       id="clipPath210"
       clipPathUnits="userSpaceOnUse"><path
         id="path212"
         d="m 0,0 25.543,0 0,51.055 L 0,51.055 0,0 Z"
         inkscape:connector-curvature="0" /></clipPath><clipPath
       id="clipPath228"
       clipPathUnits="userSpaceOnUse"><path
         id="path230"
         d="m 0,0 25.543,0 0,51.055 L 0,51.055 0,0 Z"
         inkscape:connector-curvature="0" /></clipPath></defs><g
     transform="matrix(1.875,0,0,-1.875,-33.90625,559.01845)"
     id="g10"><path
       id="path12"
       style="fill:#ffffff;fill-opacity:1;fill-rule:evenodd;stroke:none"
       d="m 29.25,46.5 283.5,0 0,158.25 -283.5,0 0,-158.25 z"
       inkscape:connector-curvature="0" /><g
       id="g14"><path
         id="path16"
         style="fill:none;stroke:#0070c0;stroke-width:1;stroke-linecap:round;stroke-linejoin:round;stroke-miterlimit:10;stroke-dasharray:1, 2;stroke-dashoffset:0;stroke-opacity:1"
         d="m 29.25,46.5 283.5,0 0,158.25 -283.5,0 0,-158.25 z"
         inkscape:connector-curvature="0" /></g><path
       id="path18"
       style="fill:#fff6f5;fill-opacity:1;fill-rule:evenodd;stroke:none"
       d="m 29.25,233.25 283.5,0 0,42.75 -283.5,0 0,-42.75 z"
       inkscape:connector-curvature="0" /><path
       id="path20"
       style="fill:none;stroke:#c70039;stroke-width:1;stroke-linecap:round;stroke-linejoin:round;stroke-miterlimit:10;stroke-dasharray:none;stroke-opacity:1"
       d="m 29.25,233.25 283.5,0 0,42.75 -283.5,0 0,-42.75 z"
       inkscape:connector-curvature="0" /><g
       transform="matrix(1.063,0,0,0.35428,139.9,241.97)"
       id="g22"><g
         transform="scale(0.19241,0.57713)"
         id="g24"><g
           clip-path="url(#clipPath28)"
           id="g26"><path
             id="path32"
             style="fill:#636466;fill-opacity:1;fill-rule:nonzero;stroke:none"
             d="m 204.27,84.596 c 0,-2.88 -2.34,-5.46 -5.46,-5.46 -2.4,0 -4.44,-0.6 -6.24,-1.98 -1.92,-1.26 -3.48,-3 -4.74,-4.98 -2.46,-3.3 -3.71,-7.2 -4.19,-8.64 l 0,-19.681 c 0,-3.02 -2.58,-5.48 -5.7,-5.48 -3,0 -5.48,2.46 -5.48,5.48 l 0,40.741 c 0,3 2.48,5.4 5.48,5.4 3.12,0 5.7,-2.4 5.7,-5.4 l 0,-0.72 c 0.6,0.72 1.44,1.56 2.15,2.1 3.42,2.28 7.86,4.14 13.02,4.02 3.12,0 5.46,-2.4 5.46,-5.4 z"
             inkscape:connector-curvature="0" /><path
             id="path34"
             style="fill:#636466;fill-opacity:1;fill-rule:nonzero;stroke:none"
             d="m 201.27,64.256 c 0.06,14.04 11.04,25.86 25.2,25.86 13.44,0 24.12,-10.08 24.9,-24 l 0,-0.54 c 0,-0.18 0,-0.72 -0.06,-0.9 -0.36,-2.52 -2.52,-4.14 -5.4,-4.14 l -32.88,0 c 0.54,-2.4 1.68,-5.1 3.54,-6.84 2.16,-2.461 6.3,-4.321 9.9,-4.681 3.72,-0.3 8.16,0.66 10.74,2.64 2.16,2.221 6.42,1.921 7.8,0.3 1.32,-1.44 2.34,-4.56 0,-6.72 -5.1,-4.7 -11.22,-6.86 -18.54,-6.86 -14.16,0.12 -25.14,11.78 -25.2,25.881 z m 11.22,5.04 29.28,0 c -1.02,4.14 -6.3,10.26 -15.3,10.98 -8.76,-0.42 -13.14,-6.72 -13.98,-10.98 z"
             inkscape:connector-curvature="0" /><path
             id="path36"
             style="fill:#636466;fill-opacity:1;fill-rule:nonzero;stroke:none"
             d="m 304.07,43.975 c 0,-3.02 -2.46,-5.6 -5.58,-5.6 -2.76,0 -4.98,1.98 -5.46,4.46 -3.96,-2.72 -8.9,-4.46 -14.12,-4.46 -13.92,0 -25.08,11.78 -25.08,25.761 0,14.16 11.16,25.98 25.08,25.98 5.1,0 10.1,-1.68 13.88,-4.38 l 0,19.464 c 0,3 2.52,5.58 5.7,5.58 3.12,0 5.58,-2.58 5.58,-5.58 l 0,-40.944 0,-0.12 0,-20.161 z m -25.16,34.861 c -3.72,0 -7.08,-1.56 -9.66,-4.26 -2.64,-2.58 -4.14,-6.3 -4.14,-10.44 0,-3.9 1.5,-7.62 4.14,-10.26 2.58,-2.641 5.94,-4.201 9.66,-4.201 3.84,0 7.14,1.56 9.74,4.201 2.58,2.64 4.14,6.36 4.14,10.26 0,4.14 -1.56,7.86 -4.14,10.44 -2.6,2.7 -5.9,4.26 -9.74,4.26 z"
             inkscape:connector-curvature="0" /><path
             id="path38"
             style="fill:#636466;fill-opacity:1;fill-rule:nonzero;stroke:none"
             d="m 323.75,103.04 c 0,-3.124 -2.4,-5.704 -5.58,-5.704 -3.12,0 -5.58,2.58 -5.58,5.704 l 0,2.16 c 0,3.12 2.46,5.58 5.58,5.58 3.18,0 5.58,-2.46 5.58,-5.58 l 0,-2.16 z m 0,-18.744 0,-40.321 c 0,-3.14 -2.4,-5.6 -5.58,-5.6 -3.12,0 -5.58,2.46 -5.58,5.6 l 0,40.321 c 0,3.3 2.46,5.7 5.58,5.7 3.18,0 5.58,-2.4 5.58,-5.7 z"
             inkscape:connector-curvature="0" /><path
             id="path40"
             style="fill:#636466;fill-opacity:1;fill-rule:nonzero;stroke:none"
             d="m 330.83,53.156 c 1.86,2.52 5.52,2.82 7.8,0.84 2.64,-2.281 7.32,-4.621 11.34,-4.561 2.82,0 5.4,0.96 7.02,1.98 1.44,1.26 1.86,2.281 1.86,3.121 0,0.48 -0.06,0.72 -0.3,1.02 -0.12,0.3 -0.48,0.72 -1.32,1.26 -1.44,1.02 -4.56,2.16 -8.28,2.88 l -0.12,0 c -3.18,0.6 -6.3,1.44 -9,2.7 -2.76,1.32 -5.28,3.18 -7.14,6 -1.14,1.86 -1.74,4.14 -1.74,6.48 0,4.8 2.7,8.82 6.12,11.4 3.6,2.46 7.92,3.84 12.72,3.84 7.14,0 12.18,-3.42 15.48,-5.7 2.52,-1.68 3.24,-5.1 1.68,-7.68 -1.68,-2.46 -5.1,-3.18 -7.68,-1.44 -3.3,2.16 -6.18,3.84 -9.48,3.84 -2.58,0 -4.86,-0.84 -6.24,-1.86 -1.32,-0.96 -1.62,-1.86 -1.62,-2.4 0,-0.42 0,-0.48 0.18,-0.78 0.12,-0.24 0.42,-0.66 1.14,-1.08 1.38,-0.9 4.02,-1.86 7.56,-2.46 l 0.12,-0.12 0.06,0 c 3.42,-0.6 6.66,-1.56 9.66,-3 2.76,-1.2 5.58,-3.18 7.32,-6.06 1.26,-2.1 1.98,-4.44 1.98,-6.84 0,-5.101 -2.82,-9.301 -6.54,-12.001 -3.72,-2.6 -8.34,-4.16 -13.44,-4.16 -8.04,0.12 -14.28,3.86 -18.36,7.16 -2.28,1.86 -2.64,5.4 -0.78,7.621 z"
             inkscape:connector-curvature="0" /><path
             id="path42"
             style="fill:#a41e11;fill-opacity:1;fill-rule:nonzero;stroke:none"
             d="m 134.78,30.755 c -7.26,-3.78 -44.882,-19.26 -52.922,-23.3999 -7.98,-4.2 -12.42,-4.14 -18.78,-1.14 C 56.758,9.2752 16.74,25.415 9.4797,28.895 c -3.5999,1.68 -5.4598,3.18 -5.4598,4.56 l 0,13.76 c 0,0 52.0781,11.341 60.5581,14.341 8.4,3.06 11.34,3.12 18.48,0.54 7.14,-2.64 49.982,-10.381 57.062,-12.961 0,0 0,-12.32 0,-13.58 0,-1.38 -1.62,-2.88 -5.34,-4.8 z"
             inkscape:connector-curvature="0" /><path
             id="path44"
             style="fill:#d82c20;fill-opacity:1;fill-rule:nonzero;stroke:none"
             d="m 134.78,44.575 c -7.26,-3.8 -44.882,-19.28 -52.922,-23.48 -7.98,-4.14 -12.42,-4.14 -18.78,-1.08 -6.32,3 -46.338,19.2 -53.5983,22.64 -7.1998,3.42 -7.3198,5.82 -0.24,8.58 7.0803,2.761 46.8583,18.421 55.3383,21.421 8.4,3 11.34,3.12 18.48,0.54 7.14,-2.64 44.582,-17.52 51.602,-20.101 7.08,-2.64 7.38,-4.74 0.12,-8.52 z"
             inkscape:connector-curvature="0" /><path
             id="path46"
             style="fill:#a41e11;fill-opacity:1;fill-rule:nonzero;stroke:none"
             d="m 134.78,53.215 c -7.26,-3.78 -44.882,-19.28 -52.922,-23.42 -7.98,-4.2 -12.42,-4.14 -18.78,-1.14 -6.32,3.06 -46.338,19.22 -53.5983,22.7 -3.5999,1.68 -5.4598,3.121 -5.4598,4.501 l 0,13.8 c 0,0 52.0781,11.34 60.5581,14.34 8.4,3 11.34,3.12 18.48,0.48 7.14,-2.58 49.982,-10.32 57.062,-12.9 0,0 0,-12.3 0,-13.56 0,-1.38 -1.62,-2.88 -5.34,-4.801 z"
             inkscape:connector-curvature="0" /><path
             id="path48"
             style="fill:#d82c20;fill-opacity:1;fill-rule:nonzero;stroke:none"
             d="m 134.78,66.956 c -7.26,-3.78 -44.882,-19.201 -52.922,-23.401 -7.98,-4.22 -12.42,-4.16 -18.78,-1.14 -6.32,3.06 -46.338,19.201 -53.5983,22.681 -7.1998,3.42 -7.3198,5.82 -0.24,8.58 7.0803,2.76 46.8583,18.42 55.3383,21.42 8.4,3.02 11.34,3.14 18.48,0.48 7.14,-2.58 44.582,-17.46 51.602,-20.1 7.08,-2.58 7.38,-4.68 0.12,-8.52 z"
             inkscape:connector-curvature="0" /><path
             id="path50"
             style="fill:#a41e11;fill-opacity:1;fill-rule:nonzero;stroke:none"
             d="m 134.78,76.496 c -7.26,-3.78 -44.882,-19.26 -52.922,-23.461 -7.98,-4.14 -12.42,-4.14 -18.78,-1.08 -6.32,3.001 -46.338,19.201 -53.5983,22.621 -3.5999,1.74 -5.4598,3.18 -5.4598,4.56 l 0,13.74 c 0,0 52.0781,11.364 60.5581,14.424 8.4,3 11.34,3.12 18.48,0.48 7.14,-2.64 49.982,-10.324 57.062,-12.924 0,0 0,-12.3 0,-13.56 0,-1.38 -1.62,-2.88 -5.34,-4.8 z"
             inkscape:connector-curvature="0" /><path
             id="path52"
             style="fill:#d82c20;fill-opacity:1;fill-rule:nonzero;stroke:none"
             d="m 134.78,90.236 c -7.26,-3.78 -44.882,-19.26 -52.922,-23.4 -7.98,-4.2 -12.42,-4.14 -18.78,-1.14 -6.32,3.06 -46.338,19.2 -53.5983,22.68 -7.1998,3.42 -7.3198,5.82 -0.24,8.58 7.0803,2.78 46.8583,18.384 55.3383,21.444 8.4,3 11.34,3.12 18.48,0.48 7.14,-2.64 44.582,-17.52 51.602,-20.104 7.08,-2.6 7.38,-4.76 0.12,-8.54 z"
             inkscape:connector-curvature="0" /><path
             id="path54"
             style="fill:#ffffff;fill-opacity:1;fill-rule:nonzero;stroke:none"
             d="m 89.898,103.52 -11.82,-1.2 -2.64,-6.384 -4.26,7.104 -13.62,1.2 10.2,3.66 -3.06,5.64 9.48,-3.72 9,2.94 -2.4,-5.82 9.12,-3.42 z"
             inkscape:connector-curvature="0" /><path
             id="path56"
             style="fill:#ffffff;fill-opacity:1;fill-rule:nonzero;stroke:none"
             d="m 74.778,72.656 -22.039,9.18 31.519,4.8 -9.48,-13.98 z"
             inkscape:connector-curvature="0" /><path
             id="path58"
             style="fill:#ffffff;fill-opacity:1;fill-rule:nonzero;stroke:none"
             d="m 61.098,93.416 c 0,-3.6 -7.579,-6.54 -16.879,-6.54 -9.3,0 -16.86,2.94 -16.86,6.54 0,3.62 7.56,6.56 16.86,6.56 9.3,0 16.879,-2.94 16.879,-6.56 z"
             inkscape:connector-curvature="0" /><path
             id="path60"
             style="fill:#7a0c00;fill-opacity:1;fill-rule:nonzero;stroke:none"
             d="m 103.82,101.78 18.66,-7.404 -18.66,-7.38 0,14.784 z"
             inkscape:connector-curvature="0" /><path
             id="path62"
             style="fill:#ad2115;fill-opacity:1;fill-rule:nonzero;stroke:none"
             d="m 83.178,93.596 20.642,8.184 0,-14.784 -1.98,-0.78 -18.662,7.38 z"
             inkscape:connector-curvature="0" /></g></g></g><path
       id="path64"
       style="fill:none;stroke:#404040;stroke-width:1;stroke-linecap:round;stroke-linejoin:round;stroke-miterlimit:10;stroke-dasharray:none;stroke-opacity:1"
       d="m 64.5,193.5 0,32.25"
       inkscape:connector-curvature="0" /><path
       id="path66"
       style="fill:#404040;fill-opacity:1;fill-rule:evenodd;stroke:none"
       d="m 67.5,193.5 -3,-8.25 -2.25,8.25 5.25,0 z"
       inkscape:connector-curvature="0" /><path
       id="path68"
       style="fill:#404040;fill-opacity:1;fill-rule:evenodd;stroke:none"
       d="m 62.25,225 2.25,8.25 3,-8.25 -5.25,0 z"
       inkscape:connector-curvature="0" /><path
       id="path70"
       style="fill:none;stroke:#404040;stroke-width:1;stroke-linecap:round;stroke-linejoin:round;stroke-miterlimit:10;stroke-dasharray:none;stroke-opacity:1"
       d="m 135.75,193.5 0,32.25"
       inkscape:connector-curvature="0" /><path
       id="path72"
       style="fill:#404040;fill-opacity:1;fill-rule:evenodd;stroke:none"
       d="m 138.75,193.5 -3,-8.25 -3,8.25 6,0 z"
       inkscape:connector-curvature="0" /><path
       id="path74"
       style="fill:#404040;fill-opacity:1;fill-rule:evenodd;stroke:none"
       d="m 132.75,225 3,8.25 3,-8.25 -6,0 z"
       inkscape:connector-curvature="0" /><path
       id="path76"
       style="fill:none;stroke:#404040;stroke-width:1;stroke-linecap:round;stroke-linejoin:round;stroke-miterlimit:10;stroke-dasharray:none;stroke-opacity:1"
       d="m 206.25,193.5 0,32.25"
       inkscape:connector-curvature="0" /><path
       id="path78"
       style="fill:#404040;fill-opacity:1;fill-rule:evenodd;stroke:none"
       d="m 209.25,193.5 -3,-8.25 -2.25,8.25 5.25,0 z"
       inkscape:connector-curvature="0" /><path
       id="path80"
       style="fill:#404040;fill-opacity:1;fill-rule:evenodd;stroke:none"
       d="m 204,225 2.25,8.25 3,-8.25 -5.25,0 z"
       inkscape:connector-curvature="0" /><path
       id="path82"
       style="fill:none;stroke:#404040;stroke-width:1;stroke-linecap:round;stroke-linejoin:round;stroke-miterlimit:10;stroke-dasharray:none;stroke-opacity:1"
       d="m 277.5,193.5 0,32.25"
       inkscape:connector-curvature="0" /><path
       id="path84"
       style="fill:#404040;fill-opacity:1;fill-rule:evenodd;stroke:none"
       d="m 280.5,193.5 -3,-8.25 -3,8.25 6,0 z"
       inkscape:connector-curvature="0" /><path
       id="path86"
       style="fill:#404040;fill-opacity:1;fill-rule:evenodd;stroke:none"
       d="m 274.5,225 3,8.25 3,-8.25 -6,0 z"
       inkscape:connector-curvature="0" /><text
       id="text88"
       style="font-variant:normal;font-weight:normal;font-size:7.99991989px;font-family:ARIAL;-inkscape-font-specification:ARIAL;writing-mode:lr-tb;fill:#404040;fill-opacity:1;fill-rule:nonzero;stroke:none"
       transform="matrix(1,0,0,-1,141.96,281.75)"><tspan
         id="tspan90"
         y="0"
         x="0 6.664032 11.1132 15.113304 19.113407 23.562576 28.011744 32.460911 34.683479 40.019257 42.683472 47.132641 51.132744 55.581913">Message Broker</tspan></text>
<text
       id="text92"
       style="font-variant:normal;font-weight:normal;font-size:7.99991989px;font-family:ARIAL;-inkscape-font-specification:ARIAL;writing-mode:lr-tb;fill:#404040;fill-opacity:1;fill-rule:nonzero;stroke:none"
       transform="matrix(0,1,1,0,55.841,208.08)"><tspan
         id="tspan94"
         y="0"
         x="0 4.8867121 10.664136">TCP</tspan></text>
<path
       id="path96"
       style="fill:#f2f2f2;fill-opacity:1;fill-rule:evenodd;stroke:none"
       d="m 43.5,164.25 42.75,0 0,21 -42.75,0 0,-21 z"
       inkscape:connector-curvature="0" /><path
       id="path98"
       style="fill:none;stroke:#404040;stroke-width:1;stroke-linecap:round;stroke-linejoin:round;stroke-miterlimit:10;stroke-dasharray:none;stroke-opacity:1"
       d="m 43.5,164.25 42.75,0 0,21 -42.75,0 0,-21 z"
       inkscape:connector-curvature="0" /><text
       id="text100"
       style="font-variant:normal;font-weight:normal;font-size:7.99991989px;font-family:ARIAL;-inkscape-font-specification:ARIAL;writing-mode:lr-tb;fill:#404040;fill-opacity:1;fill-rule:nonzero;stroke:none"
       transform="matrix(1,0,0,-1,51,172.41)"><tspan
         id="tspan102"
         y="0"
         x="0 5.3357759 11.558448 17.335873 22.671648">SOCAT</tspan></text>
<path
       id="path104"
       style="fill:none;stroke:#404040;stroke-width:1;stroke-linecap:round;stroke-linejoin:round;stroke-miterlimit:10;stroke-dasharray:none;stroke-opacity:1"
       d="m 64.5,122.25 0,34.5"
       inkscape:connector-curvature="0" /><path
       id="path106"
       style="fill:#404040;fill-opacity:1;fill-rule:evenodd;stroke:none"
       d="m 67.5,123 -3,-8.25 -2.25,8.25 5.25,0 z"
       inkscape:connector-curvature="0" /><path
       id="path108"
       style="fill:#404040;fill-opacity:1;fill-rule:evenodd;stroke:none"
       d="m 62.25,156 2.25,8.25 3,-8.25 -5.25,0 z"
       inkscape:connector-curvature="0" /><path
       id="path110"
       style="fill:#f2f2f2;fill-opacity:1;fill-rule:evenodd;stroke:none"
       d="m 114.75,164.25 42,0 0,21 -42,0 0,-21 z"
       inkscape:connector-curvature="0" /><path
       id="path112"
       style="fill:none;stroke:#404040;stroke-width:1;stroke-linecap:round;stroke-linejoin:round;stroke-miterlimit:10;stroke-dasharray:none;stroke-opacity:1"
       d="m 114.75,164.25 42,0 0,21 -42,0 0,-21 z"
       inkscape:connector-curvature="0" /><text
       id="text114"
       style="font-variant:normal;font-weight:normal;font-size:7.99991989px;font-family:ARIAL;-inkscape-font-specification:ARIAL;writing-mode:lr-tb;fill:#404040;fill-opacity:1;fill-rule:nonzero;stroke:none"
       transform="matrix(1,0,0,-1,121.87,172.41)"><tspan
         id="tspan116"
         y="0"
         x="0 5.3357759 11.558448 17.335873 22.671648">SOCAT</tspan></text>
<path
       id="path118"
       style="fill:none;stroke:#404040;stroke-width:1;stroke-linecap:round;stroke-linejoin:round;stroke-miterlimit:10;stroke-dasharray:none;stroke-opacity:1"
       d="m 135.75,122.25 0,34.5"
       inkscape:connector-curvature="0" /><path
       id="path120"
       style="fill:#404040;fill-opacity:1;fill-rule:evenodd;stroke:none"
       d="m 138.75,123 -3,-8.25 -3,8.25 6,0 z"
       inkscape:connector-curvature="0" /><path
       id="path122"
       style="fill:#404040;fill-opacity:1;fill-rule:evenodd;stroke:none"
       d="m 132.75,156 3,8.25 3,-8.25 -6,0 z"
       inkscape:connector-curvature="0" /><path
       id="path124"
       style="fill:#f2f2f2;fill-opacity:1;fill-rule:evenodd;stroke:none"
       d="m 185.25,164.25 42.75,0 0,21 -42.75,0 0,-21 z"
       inkscape:connector-curvature="0" /><path
       id="path126"
       style="fill:none;stroke:#404040;stroke-width:1;stroke-linecap:round;stroke-linejoin:round;stroke-miterlimit:10;stroke-dasharray:none;stroke-opacity:1"
       d="m 185.25,164.25 42.75,0 0,21 -42.75,0 0,-21 z"
       inkscape:connector-curvature="0" /><text
       id="text128"
       style="font-variant:normal;font-weight:normal;font-size:7.99991989px;font-family:ARIAL;-inkscape-font-specification:ARIAL;writing-mode:lr-tb;fill:#404040;fill-opacity:1;fill-rule:nonzero;stroke:none"
       transform="matrix(1,0,0,-1,192.73,172.41)"><tspan
         id="tspan130"
         y="0"
         x="0 5.3357759 11.558448 17.335873 22.671648">SOCAT</tspan></text>
<path
       id="path132"
       style="fill:none;stroke:#404040;stroke-width:1;stroke-linecap:round;stroke-linejoin:round;stroke-miterlimit:10;stroke-dasharray:none;stroke-opacity:1"
       d="m 206.25,122.25 0,34.5"
       inkscape:connector-curvature="0" /><path
       id="path134"
       style="fill:#404040;fill-opacity:1;fill-rule:evenodd;stroke:none"
       d="m 209.25,123 -3,-8.25 -2.25,8.25 5.25,0 z"
       inkscape:connector-curvature="0" /><path
       id="path136"
       style="fill:#404040;fill-opacity:1;fill-rule:evenodd;stroke:none"
       d="m 204,156 2.25,8.25 3,-8.25 -5.25,0 z"
       inkscape:connector-curvature="0" /><path
       id="path138"
       style="fill:#f2f2f2;fill-opacity:1;fill-rule:evenodd;stroke:none"
       d="m 255.75,164.25 42.75,0 0,21 -42.75,0 0,-21 z"
       inkscape:connector-curvature="0" /><path
       id="path140"
       style="fill:none;stroke:#404040;stroke-width:1;stroke-linecap:round;stroke-linejoin:round;stroke-miterlimit:10;stroke-dasharray:none;stroke-opacity:1"
       d="m 255.75,164.25 42.75,0 0,21 -42.75,0 0,-21 z"
       inkscape:connector-curvature="0" /><text
       id="text142"
       style="font-variant:normal;font-weight:normal;font-size:7.99991989px;font-family:ARIAL;-inkscape-font-specification:ARIAL;writing-mode:lr-tb;fill:#404040;fill-opacity:1;fill-rule:nonzero;stroke:none"
       transform="matrix(1,0,0,-1,263.6,172.41)"><tspan
         id="tspan144"
         y="0"
         x="0 5.3357759 11.558448 17.335873 22.671648">SOCAT</tspan></text>
<path
       id="path146"
       style="fill:none;stroke:#404040;stroke-width:1;stroke-linecap:round;stroke-linejoin:round;stroke-miterlimit:10;stroke-dasharray:none;stroke-opacity:1"
       d="m 277.5,122.25 0,34.5"
       inkscape:connector-curvature="0" /><path
       id="path148"
       style="fill:#404040;fill-opacity:1;fill-rule:evenodd;stroke:none"
       d="m 280.5,123 -3,-8.25 -3,8.25 6,0 z"
       inkscape:connector-curvature="0" /><path
       id="path150"
       style="fill:#404040;fill-opacity:1;fill-rule:evenodd;stroke:none"
       d="m 274.5,156 3,8.25 3,-8.25 -6,0 z"
       inkscape:connector-curvature="0" /><text
       id="text152"
       style="font-variant:normal;font-weight:normal;font-size:7.99991989px;font-family:ARIAL;-inkscape-font-specification:ARIAL;writing-mode:lr-tb;fill:#404040;fill-opacity:1;fill-rule:nonzero;stroke:none"
       transform="matrix(0,1,1,0,55.841,124.48)"><tspan
         id="tspan154"
         y="0"
         x="0 5.3357759 7.5583439 10.22256 14.671728 19.120895 25.784927">Streams</tspan></text>
<path
       id="path156"
       style="fill:#f2f8fc;fill-opacity:1;fill-rule:evenodd;stroke:none"
       d="m 43.5,72 42.75,0 0,42.75 -42.75,0 0,-42.75 z"
       inkscape:connector-curvature="0" /><path
       id="path158"
       style="fill:none;stroke:#0474be;stroke-width:1;stroke-linecap:round;stroke-linejoin:round;stroke-miterlimit:10;stroke-dasharray:none;stroke-opacity:1"
       d="m 43.5,72 42.75,0 0,42.75 -42.75,0 0,-42.75 z"
       inkscape:connector-curvature="0" /><g
       transform="matrix(0.28342,0,0,0.56715,54.577,72.051)"
       id="g160"><g
         transform="scale(2.8187,1.4102)"
         id="g162"><g
           clip-path="url(#clipPath166)"
           id="g164"><path
             id="path170"
             style="fill:#0474be;fill-opacity:1;fill-rule:nonzero;stroke:none"
             d="m 5.7198,11.515 1.08,1.46 6.8002,20.42 C 11.5,30.575 5.7198,11.515 5.7198,11.515 Z"
             inkscape:connector-curvature="0" /><path
             id="path172"
             style="fill:#0474be;fill-opacity:1;fill-rule:nonzero;stroke:none"
             d="m 14.2,43.175 c -0.18,-0.24 -0.36,-0.48 -0.54,-0.78 -1.14,-2.34 -1.02,-5.94 -1.02,-5.94 -0.48,0.72 -0.42,2.58 -0.24,4.08 -2.6603,-3.96 -4.9402,-7.56 -5.6602,-11.04 -0.54,-2.36 -0.12,-4.82 -0.12,-4.82 l -0.72,2.34 C 2.9399,17.295 4.8799,10.975 4.8799,10.975 l -0.84,-4.8001 1.08,1.86 0.5399,1.9801 0.54,1.62 C 13.3,17.955 16.6,28.295 16.6,28.295 l -3.12,-0.92 c 4.94,3.38 7.039,14.18 7.039,14.18 2.52,10.58 -5.299,2.84 -6.319,1.62 z m -7.5802,-30.2 -0.6,0.18 c 0,0 5.4802,17.42 7.5802,20.24 L 6.6198,12.975 Z"
             inkscape:connector-curvature="0" /></g></g></g><text
       id="text174"
       style="font-variant:normal;font-weight:normal;font-size:7.99991989px;font-family:ARIAL;-inkscape-font-specification:ARIAL;writing-mode:lr-tb;fill:#404040;fill-opacity:1;fill-rule:nonzero;stroke:none"
       transform="matrix(1,0,0,-1,48.989,58.313)"><tspan
         id="tspan176"
         y="0"
         x="0 5.3357759 9.7849436 14.234112 16.011433 20.4606 24.909767">Engine </tspan></text>
<text
       id="text178"
       style="font-variant:normal;font-weight:normal;font-size:7.99991989px;font-family:ARIAL;-inkscape-font-specification:ARIAL;writing-mode:lr-tb;fill:#404040;fill-opacity:1;fill-rule:nonzero;stroke:none"
       transform="matrix(1,0,0,-1,76.121,58.313)"><tspan
         id="tspan180"
         y="0"
         x="0">1</tspan></text>
<path
       id="path182"
       style="fill:#f2f8fc;fill-opacity:1;fill-rule:evenodd;stroke:none"
       d="m 114.75,72 42,0 0,42.75 -42,0 0,-42.75 z"
       inkscape:connector-curvature="0" /><path
       id="path184"
       style="fill:none;stroke:#0474be;stroke-width:1;stroke-linecap:round;stroke-linejoin:round;stroke-miterlimit:10;stroke-dasharray:none;stroke-opacity:1"
       d="m 114.75,72 42,0 0,42.75 -42,0 0,-42.75 z"
       inkscape:connector-curvature="0" /><g
       transform="matrix(0.28342,0,0,0.56715,125.44,72.051)"
       id="g186"><g
         transform="scale(2.8187,1.4102)"
         id="g188"><g
           clip-path="url(#clipPath192)"
           id="g190"><path
             id="path196"
             style="fill:#0474be;fill-opacity:1;fill-rule:nonzero;stroke:none"
             d="m 5.7198,11.515 1.08,1.46 6.8002,20.42 C 11.5,30.575 5.7198,11.515 5.7198,11.515 Z"
             inkscape:connector-curvature="0" /><path
             id="path198"
             style="fill:#0474be;fill-opacity:1;fill-rule:nonzero;stroke:none"
             d="m 14.2,43.175 c -0.18,-0.24 -0.36,-0.48 -0.54,-0.78 -1.14,-2.34 -1.02,-5.94 -1.02,-5.94 -0.48,0.72 -0.42,2.58 -0.24,4.08 -2.6603,-3.96 -4.9402,-7.56 -5.6602,-11.04 -0.54,-2.36 -0.12,-4.82 -0.12,-4.82 l -0.72,2.34 C 2.9399,17.295 4.8799,10.975 4.8799,10.975 l -0.84,-4.8001 1.08,1.86 0.5399,1.9801 0.54,1.62 C 13.3,17.955 16.6,28.295 16.6,28.295 l -3.12,-0.92 c 4.94,3.38 7.039,14.18 7.039,14.18 2.52,10.58 -5.299,2.84 -6.319,1.62 z m -7.5802,-30.2 -0.6,0.18 c 0,0 5.4802,17.42 7.5802,20.24 L 6.6198,12.975 Z"
             inkscape:connector-curvature="0" /></g></g></g><path
       id="path200"
       style="fill:#f2f8fc;fill-opacity:1;fill-rule:evenodd;stroke:none"
       d="m 185.25,72 42.75,0 0,42.75 -42.75,0 0,-42.75 z"
       inkscape:connector-curvature="0" /><path
       id="path202"
       style="fill:none;stroke:#0474be;stroke-width:1;stroke-linecap:round;stroke-linejoin:round;stroke-miterlimit:10;stroke-dasharray:none;stroke-opacity:1"
       d="m 185.25,72 42.75,0 0,42.75 -42.75,0 0,-42.75 z"
       inkscape:connector-curvature="0" /><g
       transform="matrix(0.28342,0,0,0.56715,196.31,72.051)"
       id="g204"><g
         transform="scale(2.8187,1.4102)"
         id="g206"><g
           clip-path="url(#clipPath210)"
           id="g208"><path
             id="path214"
             style="fill:#0474be;fill-opacity:1;fill-rule:nonzero;stroke:none"
             d="m 5.7198,11.515 1.08,1.46 6.8002,20.42 C 11.5,30.575 5.7198,11.515 5.7198,11.515 Z"
             inkscape:connector-curvature="0" /><path
             id="path216"
             style="fill:#0474be;fill-opacity:1;fill-rule:nonzero;stroke:none"
             d="m 14.2,43.175 c -0.18,-0.24 -0.36,-0.48 -0.54,-0.78 -1.14,-2.34 -1.02,-5.94 -1.02,-5.94 -0.48,0.72 -0.42,2.58 -0.24,4.08 -2.6603,-3.96 -4.9402,-7.56 -5.6602,-11.04 -0.54,-2.36 -0.12,-4.82 -0.12,-4.82 l -0.72,2.34 C 2.9399,17.295 4.8799,10.975 4.8799,10.975 l -0.84,-4.8001 1.08,1.86 0.5399,1.9801 0.54,1.62 C 13.3,17.955 16.6,28.295 16.6,28.295 l -3.12,-0.92 c 4.94,3.38 7.039,14.18 7.039,14.18 2.52,10.58 -5.299,2.84 -6.319,1.62 z m -7.5802,-30.2 -0.6,0.18 c 0,0 5.4802,17.42 7.5802,20.24 L 6.6198,12.975 Z"
             inkscape:connector-curvature="0" /></g></g></g><path
       id="path218"
       style="fill:#f2f8fc;fill-opacity:1;fill-rule:evenodd;stroke:none"
       d="m 255.75,72 42.75,0 0,42.75 -42.75,0 0,-42.75 z"
       inkscape:connector-curvature="0" /><path
       id="path220"
       style="fill:none;stroke:#0474be;stroke-width:1;stroke-linecap:round;stroke-linejoin:round;stroke-miterlimit:10;stroke-dasharray:none;stroke-opacity:1"
       d="m 255.75,72 42.75,0 0,42.75 -42.75,0 0,-42.75 z"
       inkscape:connector-curvature="0" /><g
       transform="matrix(0.28342,0,0,0.56715,267.17,72.051)"
       id="g222"><g
         transform="scale(2.8187,1.4102)"
         id="g224"><g
           clip-path="url(#clipPath228)"
           id="g226"><path
             id="path232"
             style="fill:#0474be;fill-opacity:1;fill-rule:nonzero;stroke:none"
             d="m 5.7198,11.515 1.08,1.46 6.8002,20.42 C 11.5,30.575 5.7198,11.515 5.7198,11.515 Z"
             inkscape:connector-curvature="0" /><path
             id="path234"
             style="fill:#0474be;fill-opacity:1;fill-rule:nonzero;stroke:none"
             d="m 14.2,43.175 c -0.18,-0.24 -0.36,-0.48 -0.54,-0.78 -1.14,-2.34 -1.02,-5.94 -1.02,-5.94 -0.48,0.72 -0.42,2.58 -0.24,4.08 -2.6603,-3.96 -4.9402,-7.56 -5.6602,-11.04 -0.54,-2.36 -0.12,-4.82 -0.12,-4.82 l -0.72,2.34 C 2.9399,17.295 4.8799,10.975 4.8799,10.975 l -0.84,-4.8001 1.08,1.86 0.5399,1.9801 0.54,1.62 C 13.3,17.955 16.6,28.295 16.6,28.295 l -3.12,-0.92 c 4.94,3.38 7.039,14.18 7.039,14.18 2.52,10.58 -5.299,2.84 -6.319,1.62 z m -7.5802,-30.2 -0.6,0.18 c 0,0 5.4802,17.42 7.5802,20.24 L 6.6198,12.975 Z"
             inkscape:connector-curvature="0" /></g></g></g><text
       id="text236"
       style="font-variant:normal;font-weight:normal;font-size:7.99991989px;font-family:ARIAL;-inkscape-font-specification:ARIAL;writing-mode:lr-tb;fill:#404040;fill-opacity:1;fill-rule:nonzero;stroke:none"
       transform="matrix(1,0,0,-1,119.85,58.313)"><tspan
         id="tspan238"
         y="0"
         x="0 5.3357759 9.7849436 14.234112 16.011433 20.4606 24.909767">Engine </tspan></text>
<text
       id="text240"
       style="font-variant:normal;font-weight:normal;font-size:7.99991989px;font-family:ARIAL;-inkscape-font-specification:ARIAL;writing-mode:lr-tb;fill:#404040;fill-opacity:1;fill-rule:nonzero;stroke:none"
       transform="matrix(1,0,0,-1,146.99,58.313)"><tspan
         id="tspan242"
         y="0"
         x="0">2</tspan></text>
<text
       id="text244"
       style="font-variant:normal;font-weight:normal;font-size:7.99991989px;font-family:ARIAL;-inkscape-font-specification:ARIAL;writing-mode:lr-tb;fill:#404040;fill-opacity:1;fill-rule:nonzero;stroke:none"
       transform="matrix(1,0,0,-1,190.72,58.313)"><tspan
         id="tspan246"
         y="0"
         x="0 5.3357759 9.7849436 14.234112 16.011433 20.4606 24.909767">Engine </tspan></text>
<text
       id="text248"
       style="font-variant:normal;font-weight:normal;font-size:7.99991989px;font-family:ARIAL;-inkscape-font-specification:ARIAL;writing-mode:lr-tb;fill:#404040;fill-opacity:1;fill-rule:nonzero;stroke:none"
       transform="matrix(1,0,0,-1,217.85,58.313)"><tspan
         id="tspan250"
         y="0"
         x="0">3</tspan></text>
<text
       id="text252"
       style="font-variant:normal;font-weight:normal;font-size:7.99991989px;font-family:ARIAL;-inkscape-font-specification:ARIAL;writing-mode:lr-tb;fill:#404040;fill-opacity:1;fill-rule:nonzero;stroke:none"
       transform="matrix(1,0,0,-1,260.92,58.313)"><tspan
         id="tspan254"
         y="0"
         x="0 5.3357759 9.7849436 14.234112 16.011433 20.4606 24.909767 27.132336">Engine N</tspan></text>
<text
       id="text256"
       style="font-variant:normal;font-weight:normal;font-size:7.99991989px;font-family:ARIAL;-inkscape-font-specification:ARIAL;writing-mode:lr-tb;fill:#404040;fill-opacity:1;fill-rule:nonzero;stroke:none"
       transform="matrix(1,0,0,-1,105.73,32.636)"><tspan
         id="tspan258"
         y="0"
         x="0 5.7774239 7.5547438 11.554848 13.777416 16.441631 18.218952 22.668119 27.117289 29.339855 33.789024 38.238194 40.460758 45.796535 52.019207 57.354984 62.241695 67.577469 69.800041 75.135818 76.913139 83.577171 88.026337 89.803658 94.252823 96.475395 100.92456 103.58878">Distributed POETS Simulator </tspan></text>
<text
       id="text260"
       style="font-variant:normal;font-weight:normal;font-size:7.99991989px;font-family:ARIAL;-inkscape-font-specification:ARIAL;writing-mode:lr-tb;fill:#404040;fill-opacity:1;fill-rule:nonzero;stroke:none"
       transform="matrix(1,0,0,-1,211.54,32.636)"><tspan
         id="tspan262"
         y="0"
         x="0">(</tspan></text>
<text
       id="text264"
       style="font-variant:normal;font-weight:normal;font-size:7.99991989px;font-family:ARIAL;-inkscape-font-specification:ARIAL;writing-mode:lr-tb;fill:#404040;fill-opacity:1;fill-rule:nonzero;stroke:none"
       transform="matrix(1,0,0,-1,214.21,32.636)"><tspan
         id="tspan266"
         y="0"
         x="0 5.3357759 10.671552 12.89412">PSIM</tspan></text>
<text
       id="text268"
       style="font-variant:normal;font-weight:normal;font-size:7.99991989px;font-family:ARIAL;-inkscape-font-specification:ARIAL;writing-mode:lr-tb;fill:#404040;fill-opacity:1;fill-rule:nonzero;stroke:none"
       transform="matrix(1,0,0,-1,233.76,32.636)"><tspan
         id="tspan270"
         y="0"
         x="0">)</tspan></text>
</g></svg>