<?xml version="1.0" encoding="UTF-8" standalone="no"?>
<!-- Created with Inkscape (http://www.inkscape.org/) -->

<svg
   xmlns:dc="http://purl.org/dc/elements/1.1/"
   xmlns:cc="http://creativecommons.org/ns#"
   xmlns:rdf="http://www.w3.org/1999/02/22-rdf-syntax-ns#"
   xmlns:svg="http://www.w3.org/2000/svg"
   xmlns="http://www.w3.org/2000/svg"
   xmlns:sodipodi="http://sodipodi.sourceforge.net/DTD/sodipodi-0.dtd"
   xmlns:inkscape="http://www.inkscape.org/namespaces/inkscape"
   width="110.30173mm"
   height="105.21885mm"
   viewBox="0 0 390.83295 372.82269"
   id="svg2"
   version="1.1"
   inkscape:version="0.91 r13725"
   sodipodi:docname="regions.svg">
  <defs
     id="defs4">
    <clipPath
       id="clipPath4268"
       clipPathUnits="userSpaceOnUse">
      <path
         inkscape:connector-curvature="0"
         id="path4270"
         d="m 3312,1301.92 0,135 299,0 0,-135 -299,0 z" />
    </clipPath>
    <clipPath
       id="clipPath4302"
       clipPathUnits="userSpaceOnUse">
      <path
         inkscape:connector-curvature="0"
         id="path4304"
         d="m 3312,615.922 0,135 299,0 0,-135 -299,0 z" />
    </clipPath>
    <clipPath
       id="clipPath4318"
       clipPathUnits="userSpaceOnUse">
      <path
         inkscape:connector-curvature="0"
         id="path4320"
         d="m 3312,1987.92 0,135 299,0 0,-135 -299,0 z" />
    </clipPath>
  </defs>
  <sodipodi:namedview
     id="base"
     pagecolor="#ffffff"
     bordercolor="#666666"
     borderopacity="1.0"
     inkscape:pageopacity="0.0"
     inkscape:pageshadow="2"
     inkscape:zoom="2.7948942"
     inkscape:cx="195.41645"
     inkscape:cy="186.41135"
     inkscape:document-units="px"
     inkscape:current-layer="layer1"
     showgrid="false"
     fit-margin-top="5"
     fit-margin-left="5"
     fit-margin-right="5"
     fit-margin-bottom="5" />
  <metadata
     id="metadata7">
    <rdf:RDF>
      <cc:Work
         rdf:about="">
        <dc:format>image/svg+xml</dc:format>
        <dc:type
           rdf:resource="http://purl.org/dc/dcmitype/StillImage" />
        <dc:title></dc:title>
      </cc:Work>
    </rdf:RDF>
  </metadata>
  <g
     inkscape:label="Layer 1"
     inkscape:groupmode="layer"
     id="layer1"
     transform="translate(-913.15496,-803.09371)">
    <g
       transform="matrix(0,1.25,1.25,0,894.75813,452.28516)"
       inkscape:label="regions"
       id="g4144">
      <g
         transform="scale(0.12,0.12)"
         id="g4146">
        <path
           inkscape:connector-curvature="0"
           id="path4148"
           style="fill:none;stroke:#0474be;stroke-width:8.33240032;stroke-linecap:round;stroke-linejoin:round;stroke-miterlimit:10;stroke-dasharray:8.3324, 16.6648;stroke-dashoffset:0;stroke-opacity:1"
           d="m 3642,1499.92 0,-265 936,-133 0,531 -936,-133" />
        <path
           inkscape:connector-curvature="0"
           id="path4150"
           style="fill:#fff6f5;fill-opacity:1;fill-rule:evenodd;stroke:none"
           d="m 2461,244.922 520,0 0,2361 -520,0 0,-2361 z" />
        <path
           inkscape:connector-curvature="0"
           id="path4152"
           style="fill:none;stroke:#c70039;stroke-width:8.33240032;stroke-linecap:round;stroke-linejoin:round;stroke-miterlimit:10;stroke-dasharray:none;stroke-opacity:1"
           d="m 2461,244.922 520,0 0,2361 -520,0 0,-2361 z" />
        <path
           inkscape:connector-curvature="0"
           id="path4154"
           style="fill:#636465;fill-opacity:1;fill-rule:nonzero;stroke:none"
           d="m 2870,2433.92 c 2,0 4,-2 4,-5 0,-1 0,-3 1,-4 1,-2 3,-3 4,-4 3,-2 6,-3 7,-3 l 15,0 c 2,0 4,-2 4,-4 0,-3 -2,-5 -4,-5 l -31,0 c -2,0 -4,2 -4,5 0,2 2,4 4,4 l 0,0 c 0,0 -1,1 -1,2 -2,2 -3,6 -3,9 0,3 2,5 4,5" />
        <path
           inkscape:connector-curvature="0"
           id="path4156"
           style="fill:#636465;fill-opacity:1;fill-rule:nonzero;stroke:none"
           d="m 2885,2430.92 c -10,0 -19,9 -19,20 0,10 7,18 18,19 l 0,0 1,0 c 2,-1 3,-2 3,-5 l 0,-25 c 2,1 4,2 5,3 2,2 3,5 4,8 0,2 -1,6 -2,8 -2,1 -2,5 -1,6 1,1 4,2 5,0 4,-4 6,-9 6,-14 0,-11 -9,-20 -20,-20 z m -4,9 0,22 c -3,0 -7,-5 -8,-11 0,-7 5,-10 8,-11" />
        <path
           inkscape:connector-curvature="0"
           id="path4158"
           style="fill:#636465;fill-opacity:1;fill-rule:nonzero;stroke:none"
           d="m 2900,2509.92 c 3,0 5,-2 5,-4 0,-2 -2,-4 -4,-5 2,-3 4,-6 4,-10 0,-11 -9,-19 -20,-19 -10,0 -19,8 -19,19 0,4 1,7 3,10 l -15,0 c -2,0 -4,2 -4,5 0,2 2,4 4,4 l 31,0 15,0 z m -26,-19 c 0,-3 1,-6 3,-8 2,-2 5,-3 8,-3 3,0 6,1 8,3 2,2 3,5 3,8 0,3 -1,5 -3,7 -2,2 -5,3 -8,3 -3,0 -6,-1 -8,-3 -2,-2 -3,-4 -3,-7" />
        <path
           inkscape:connector-curvature="0"
           id="path4160"
           style="fill:#636465;fill-opacity:1;fill-rule:nonzero;stroke:none"
           d="m 2856,2524.92 c 2,0 4,-2 4,-4 0,-3 -2,-5 -4,-5 l -2,0 c -2,0 -4,2 -4,5 0,2 2,4 4,4 l 2,0 z m 14,0 30,0 c 3,0 5,-2 5,-4 0,-3 -2,-5 -5,-5 l -30,0 c -2,0 -4,2 -4,5 0,2 2,4 4,4" />
        <path
           inkscape:connector-curvature="0"
           id="path4162"
           style="fill:#636465;fill-opacity:1;fill-rule:nonzero;stroke:none"
           d="m 2893,2529.92 c -1,2 -2,5 0,6 2,2 3,6 3,9 0,2 0,4 -1,5 -1,1 -2,2 -3,2 l 0,0 c -1,-1 -1,-1 -1,-1 -1,-2 -2,-4 -2,-7 l 0,0 c -1,-2 -2,-5 -2,-7 -1,-2 -3,-4 -5,-5 -1,-1 -3,-2 -5,-2 -4,0 -7,3 -8,5 -2,3 -3,6 -3,10 0,5 2,9 4,12 1,2 4,2 6,1 2,-1 2,-4 1,-6 -2,-2 -3,-5 -3,-7 0,-2 1,-4 1,-5 1,-1 2,-1 2,-1 0,0 0,0 1,0 0,0 0,0 1,1 0,1 1,3 1,6 l 0,0 c 1,2 2,5 3,7 1,2 2,4 4,6 2,1 4,1 5,1 4,0 7,-2 9,-5 2,-3 4,-6 4,-10 0,-6 -3,-11 -6,-14 -1,-2 -4,-2 -6,-1" />
        <path
           inkscape:connector-curvature="0"
           id="path4164"
           style="fill:#a41e11;fill-opacity:1;fill-rule:nonzero;stroke:none"
           d="m 2910,2380.92 c 3,-6 15,-35 18,-41 3,-6 3,-9 1,-14 -2,-5 -15,-36 -17,-41 -2,-3 -3,-4 -4,-4 l -10,0 c 0,0 -9,39 -11,46 -2,6 -2,9 0,14 2,5 8,38 10,44 0,0 9,0 10,0 1,0 2,-2 3,-4" />
        <path
           inkscape:connector-curvature="0"
           id="path4166"
           style="fill:#d82c20;fill-opacity:1;fill-rule:nonzero;stroke:none"
           d="m 2900,2380.92 c 3,-6 14,-35 18,-41 3,-6 3,-9 0,-14 -2,-5 -14,-36 -17,-41 -2,-6 -4,-6 -6,0 -2,5 -14,35 -16,42 -2,6 -3,9 -1,14 2,5 14,34 16,39 2,6 3,6 6,1" />
        <path
           inkscape:connector-curvature="0"
           id="path4168"
           style="fill:#a41e11;fill-opacity:1;fill-rule:nonzero;stroke:none"
           d="m 2893,2380.92 c 3,-6 15,-35 18,-41 3,-6 3,-9 1,-14 -2,-5 -15,-36 -17,-41 -1,-3 -3,-4 -4,-4 l -10,0 c 0,0 -8,39 -11,46 -2,6 -2,9 0,14 2,5 8,38 10,44 0,0 9,0 10,0 1,0 2,-2 3,-4" />
        <path
           inkscape:connector-curvature="0"
           id="path4170"
           style="fill:#d82c20;fill-opacity:1;fill-rule:nonzero;stroke:none"
           d="m 2883,2380.92 c 3,-6 15,-35 18,-41 3,-6 3,-9 1,-14 -3,-5 -15,-36 -18,-41 -2,-6 -4,-6 -6,0 -2,5 -14,35 -16,42 -2,6 -2,9 0,14 1,5 13,34 15,39 2,6 3,6 6,1" />
        <path
           inkscape:connector-curvature="0"
           id="path4172"
           style="fill:#a41e11;fill-opacity:1;fill-rule:nonzero;stroke:none"
           d="m 2876,2380.92 c 3,-6 14,-35 18,-41 3,-6 3,-9 0,-14 -2,-5 -14,-36 -17,-41 -1,-3 -2,-4 -3,-4 l -10,0 c 0,0 -9,39 -11,46 -3,6 -3,9 -1,14 2,5 8,38 10,44 0,0 9,0 10,0 1,0 2,-2 4,-4" />
        <path
           inkscape:connector-curvature="0"
           id="path4174"
           style="fill:#d82c20;fill-opacity:1;fill-rule:nonzero;stroke:none"
           d="m 2866,2380.92 c 2,-6 14,-35 17,-41 3,-6 3,-9 1,-14 -2,-5 -14,-36 -17,-41 -3,-6 -4,-6 -7,0 -2,5 -13,35 -16,42 -2,6 -2,9 0,14 2,5 13,34 15,39 2,6 4,6 7,1" />
        <path
           inkscape:connector-curvature="0"
           id="path4176"
           style="fill:#ffffff;fill-opacity:1;fill-rule:nonzero;stroke:none"
           d="m 2856,2345.92 0,-9 5,-2 -5,-3 -1,-10 -3,7 -4,-2 3,7 -2,7 4,-2" />
        <path
           inkscape:connector-curvature="0"
           id="path4178"
           style="fill:#ffffff;fill-opacity:1;fill-rule:nonzero;stroke:none"
           d="m 2879,2334.92 -7,-17 -4,24" />
        <path
           inkscape:connector-curvature="0"
           id="path4180"
           style="fill:#ffffff;fill-opacity:1;fill-rule:nonzero;stroke:none"
           d="m 2863,2323.92 c 3,0 5,-6 5,-13 0,-7 -2,-13 -5,-13 -3,0 -5,6 -5,13 0,7 2,13 5,13" />
        <path
           inkscape:connector-curvature="0"
           id="path4182"
           style="fill:#7a0c00;fill-opacity:1;fill-rule:nonzero;stroke:none"
           d="m 2857,2356.92 5,14 6,-14" />
        <path
           inkscape:connector-curvature="0"
           id="path4184"
           style="fill:#ad2115;fill-opacity:1;fill-rule:nonzero;stroke:none"
           d="m 2863,2340.92 -6,16 11,0 1,-2" />
        <g
           transform="scale(8.33333,8.33333)"
           id="g4186">
          <text
             id="text4188"
             style="font-variant:normal;font-weight:normal;font-size:8.04418087px;font-family:Arial;-inkscape-font-specification:Arial;writing-mode:lr-tb;fill:#404040;fill-opacity:1;fill-rule:nonzero;stroke:none"
             transform="matrix(0,1,0.99948027,0,312.48,148.791)">
            <tspan
               id="tspan4190"
               sodipodi:role="line"
               y="0"
               x="0 6.2413363 10.680107 15.118878 19.557648 23.99642 26.157761">Queue 1</tspan>
          </text>
        </g>
        <path
           inkscape:connector-curvature="0"
           id="path4192"
           style="fill:none;stroke:#404040;stroke-width:12.49860001;stroke-linecap:round;stroke-linejoin:round;stroke-miterlimit:10;stroke-dasharray:none;stroke-opacity:1"
           d="m 3222,2052.92 -325,0" />
        <path
           inkscape:connector-curvature="0"
           id="path4194"
           style="fill:#404040;fill-opacity:1;fill-rule:evenodd;stroke:none"
           d="m 3215,2080.92 82,-28 -82,-27 0,55" />
        <path
           inkscape:connector-curvature="0"
           id="path4196"
           style="fill:none;stroke:#404040;stroke-width:12.49860001;stroke-linecap:round;stroke-linejoin:round;stroke-miterlimit:10;stroke-dasharray:none;stroke-opacity:1"
           d="m 3222,681.922 -325,0" />
        <path
           inkscape:connector-curvature="0"
           id="path4198"
           style="fill:#404040;fill-opacity:1;fill-rule:evenodd;stroke:none"
           d="m 3215,709.922 82,-28 -82,-27 0,55" />
        <path
           inkscape:connector-curvature="0"
           id="path4200"
           style="fill:none;stroke:#404040;stroke-width:12.49860001;stroke-linecap:round;stroke-linejoin:round;stroke-miterlimit:10;stroke-dasharray:none;stroke-opacity:1"
           d="m 3222,1367.92 -325,0" />
        <path
           inkscape:connector-curvature="0"
           id="path4202"
           style="fill:#404040;fill-opacity:1;fill-rule:evenodd;stroke:none"
           d="m 3215,1394.92 82,-27 -82,-28 0,55" />
        <path
           inkscape:connector-curvature="0"
           id="path4204"
           style="fill:#ffffff;fill-opacity:1;fill-rule:evenodd;stroke:none"
           d="m 2672,1275.92 59,0 0,183 -59,0 0,-183 z" />
        <path
           inkscape:connector-curvature="0"
           id="path4206"
           style="fill:none;stroke:#c70039;stroke-width:8.33240032;stroke-linecap:round;stroke-linejoin:round;stroke-miterlimit:10;stroke-dasharray:none;stroke-opacity:1"
           d="m 2672,1275.92 59,0 0,183 -59,0 0,-183 z" />
        <path
           inkscape:connector-curvature="0"
           id="path4208"
           style="fill:#ffffff;fill-opacity:1;fill-rule:evenodd;stroke:none"
           d="m 2755,1275.92 59,0 0,183 -59,0 0,-183 z" />
        <path
           inkscape:connector-curvature="0"
           id="path4210"
           style="fill:none;stroke:#c70039;stroke-width:8.33240032;stroke-linecap:round;stroke-linejoin:round;stroke-miterlimit:10;stroke-dasharray:none;stroke-opacity:1"
           d="m 2755,1275.92 59,0 0,183 -59,0 0,-183 z" />
        <path
           inkscape:connector-curvature="0"
           id="path4212"
           style="fill:#ffffff;fill-opacity:1;fill-rule:evenodd;stroke:none"
           d="m 2838,1275.92 59,0 0,183 -59,0 0,-183 z" />
        <path
           inkscape:connector-curvature="0"
           id="path4214"
           style="fill:none;stroke:#c70039;stroke-width:8.33240032;stroke-linecap:round;stroke-linejoin:round;stroke-miterlimit:10;stroke-dasharray:none;stroke-opacity:1"
           d="m 2838,1275.92 59,0 0,183 -59,0 0,-183 z" />
        <path
           inkscape:connector-curvature="0"
           id="path4216"
           style="fill:#ffffff;fill-opacity:1;fill-rule:evenodd;stroke:none"
           d="m 2672,1961.92 59,0 0,183 -59,0 0,-183 z" />
        <path
           inkscape:connector-curvature="0"
           id="path4218"
           style="fill:none;stroke:#c70039;stroke-width:8.33240032;stroke-linecap:round;stroke-linejoin:round;stroke-miterlimit:10;stroke-dasharray:none;stroke-opacity:1"
           d="m 2672,1961.92 59,0 0,183 -59,0 0,-183 z" />
        <path
           inkscape:connector-curvature="0"
           id="path4220"
           style="fill:#ffffff;fill-opacity:1;fill-rule:evenodd;stroke:none"
           d="m 2755,1961.92 59,0 0,183 -59,0 0,-183 z" />
        <path
           inkscape:connector-curvature="0"
           id="path4222"
           style="fill:none;stroke:#c70039;stroke-width:8.33240032;stroke-linecap:round;stroke-linejoin:round;stroke-miterlimit:10;stroke-dasharray:none;stroke-opacity:1"
           d="m 2755,1961.92 59,0 0,183 -59,0 0,-183 z" />
        <path
           inkscape:connector-curvature="0"
           id="path4224"
           style="fill:#ffffff;fill-opacity:1;fill-rule:evenodd;stroke:none"
           d="m 2838,1961.92 59,0 0,183 -59,0 0,-183 z" />
        <path
           inkscape:connector-curvature="0"
           id="path4226"
           style="fill:none;stroke:#c70039;stroke-width:8.33240032;stroke-linecap:round;stroke-linejoin:round;stroke-miterlimit:10;stroke-dasharray:none;stroke-opacity:1"
           d="m 2838,1961.92 59,0 0,183 -59,0 0,-183 z" />
        <path
           inkscape:connector-curvature="0"
           id="path4228"
           style="fill:#ffffff;fill-opacity:1;fill-rule:evenodd;stroke:none"
           d="m 2672,589.922 59,0 0,184 -59,0 0,-184 z" />
        <path
           inkscape:connector-curvature="0"
           id="path4230"
           style="fill:none;stroke:#c70039;stroke-width:8.33240032;stroke-linecap:round;stroke-linejoin:round;stroke-miterlimit:10;stroke-dasharray:none;stroke-opacity:1"
           d="m 2672,589.922 59,0 0,184 -59,0 0,-184 z" />
        <path
           inkscape:connector-curvature="0"
           id="path4232"
           style="fill:#ffffff;fill-opacity:1;fill-rule:evenodd;stroke:none"
           d="m 2755,589.922 59,0 0,184 -59,0 0,-184 z" />
        <path
           inkscape:connector-curvature="0"
           id="path4234"
           style="fill:none;stroke:#c70039;stroke-width:8.33240032;stroke-linecap:round;stroke-linejoin:round;stroke-miterlimit:10;stroke-dasharray:none;stroke-opacity:1"
           d="m 2755,589.922 59,0 0,184 -59,0 0,-184 z" />
        <path
           inkscape:connector-curvature="0"
           id="path4236"
           style="fill:#ffffff;fill-opacity:1;fill-rule:evenodd;stroke:none"
           d="m 2838,589.922 59,0 0,184 -59,0 0,-184 z" />
        <path
           inkscape:connector-curvature="0"
           id="path4238"
           style="fill:none;stroke:#c70039;stroke-width:8.33240032;stroke-linecap:round;stroke-linejoin:round;stroke-miterlimit:10;stroke-dasharray:none;stroke-opacity:1"
           d="m 2838,589.922 59,0 0,184 -59,0 0,-184 z" />
        <g
           transform="scale(8.33333,8.33333)"
           id="g4240">
          <text
             id="text4242"
             style="font-variant:normal;font-weight:normal;font-size:8.04418087px;font-family:Arial;-inkscape-font-specification:Arial;writing-mode:lr-tb;fill:#404040;fill-opacity:1;fill-rule:nonzero;stroke:none"
             transform="matrix(0,1,0.99948027,0,312.48,66.4706)">
            <tspan
               id="tspan4244"
               sodipodi:role="line"
               y="0"
               x="0 6.2413363 10.680099 15.118863 19.557627 23.996389 26.277739 164.5195 170.76085 175.19962 179.63837 184.07712 188.63588 190.79723">Queue 0Queue 2</tspan>
          </text>
        </g>
        <path
           inkscape:connector-curvature="0"
           id="path4246"
           style="fill:none;stroke:#404040;stroke-width:12.49860001;stroke-linecap:round;stroke-linejoin:round;stroke-miterlimit:10;stroke-dasharray:none;stroke-opacity:1"
           d="m 3057,777.922 238,0" />
        <path
           inkscape:connector-curvature="0"
           id="path4248"
           style="fill:#404040;fill-opacity:1;fill-rule:evenodd;stroke:none"
           d="m 3064,750.922 -83,27 83,28 0,-55" />
        <path
           inkscape:connector-curvature="0"
           id="path4250"
           style="fill:none;stroke:#404040;stroke-width:12.49860001;stroke-linecap:round;stroke-linejoin:round;stroke-miterlimit:10;stroke-dasharray:none;stroke-opacity:1"
           d="m 3057,1463.92 238,0" />
        <path
           inkscape:connector-curvature="0"
           id="path4252"
           style="fill:#404040;fill-opacity:1;fill-rule:evenodd;stroke:none"
           d="m 3064,1435.92 -83,28 83,27 0,-55" />
        <path
           inkscape:connector-curvature="0"
           id="path4254"
           style="fill:none;stroke:#404040;stroke-width:12.49860001;stroke-linecap:round;stroke-linejoin:round;stroke-miterlimit:10;stroke-dasharray:none;stroke-opacity:1"
           d="m 3057,2148.92 238,0" />
        <path
           inkscape:connector-curvature="0"
           id="path4256"
           style="fill:#404040;fill-opacity:1;fill-rule:evenodd;stroke:none"
           d="m 3064,2121.92 -83,27 83,28 0,-55" />
        <path
           inkscape:connector-curvature="0"
           id="path4258"
           style="fill:#ffffff;fill-opacity:1;fill-rule:evenodd;stroke:none"
           d="m 3652,1213.92 0,308 c 0,13 -10,23 -23,23 l 0,0 -308,0 0,0 c -13,0 -23,-10 -23,-23 l -1,-1 0,-307 1,1 c 0,-13 10,-24 23,-24 l 0,-1 307,0 1,1 c 13,0 23,11 23,24" />
        <path
           inkscape:connector-curvature="0"
           id="path4260"
           style="fill:none;stroke:#0474be;stroke-width:8.33240032;stroke-linecap:round;stroke-linejoin:round;stroke-miterlimit:10;stroke-dasharray:none;stroke-opacity:1"
           d="m 3652,1213.92 0,308 c 0,13 -10,23 -23,23 l 0,0 -308,0 0,0 c -13,0 -23,-10 -23,-23 l -1,-1 0,-307 1,1 c 0,-13 10,-24 23,-24 l 0,-1 307,0 1,1 c 13,0 23,11 23,24 l 0,-1 z" />
        <path
           inkscape:connector-curvature="0"
           id="path4262"
           style="fill:#0473be;fill-opacity:1;fill-rule:nonzero;stroke:none"
           d="m 3574,1319.92 -10,7 -135,45 c 19,-13 145,-52 145,-52" />
        <g
           id="g4264">
          <g
             clip-path="url(#clipPath4268)"
             id="g4266">
            <path
               inkscape:connector-curvature="0"
               id="path4272"
               style="fill:#0473be;fill-opacity:1;fill-rule:nonzero;stroke:none"
               d="m 3364,1375.92 c 1,-1 3,-2 5,-3 16,-8 39,-7 39,-7 -4,-3 -17,-3 -27,-2 27,-17 51,-32 74,-37 15,-3 32,-1 32,-1 l -16,-4 c 65,-20 107,-7 107,-7 l 31,-6 -12,7 -13,4 -11,4 c -42,46 -110,68 -110,68 l 6,-20 c -23,32 -94,46 -94,46 -71,17 -19,-35 -11,-42 z m 200,-50 -1,-4 c 0,0 -115,37 -134,50 l 135,-46" />
          </g>
        </g>
        <g
           transform="scale(8.33333,8.33333)"
           id="g4274">
          <text
             id="text4276"
             style="font-variant:normal;font-weight:normal;font-size:8.04418087px;font-family:Arial;-inkscape-font-specification:Arial;writing-mode:lr-tb;fill:#404040;fill-opacity:1;fill-rule:nonzero;stroke:none"
             transform="matrix(0,1,0.99948027,0,563.04,65.8706)">
            <tspan
               id="tspan4278"
               sodipodi:role="line"
               y="0"
               x="0 5.758636 10.197399 14.636163 16.434811 20.873573 25.312336 27.473684 82.192291 87.950928 92.389702 96.948471 98.627113 103.06588 107.50465 109.786 164.50468 170.26332 174.70209 179.14085 180.9395 185.37825 189.81702 192.09836">Region 0Region 1Region 2</tspan>
          </text>
          <text
             id="text4280"
             style="font-variant:normal;font-weight:normal;font-size:8.04418087px;font-family:Arial;-inkscape-font-specification:Arial;writing-mode:lr-tb;fill:#404040;fill-opacity:1;fill-rule:nonzero;stroke:none"
             transform="matrix(-1,0,0,0.99948027,432.72,53.2706)">
            <tspan
               id="tspan4282"
               sodipodi:role="line"
               y="0"
               x="0 5.2800393 9.7187958 14.277551 15.956191 20.394947 24.833704 27.115044">Engine 0</tspan>
            <tspan
               id="tspan4284"
               sodipodi:role="line"
               y="82.362808"
               x="0 5.2800393 9.7187958 14.277551 15.956191 20.394947 24.833704 27.115044">Engine 1</tspan>
            <tspan
               id="tspan4286"
               sodipodi:role="line"
               y="164.72562"
               x="0 5.2800393 9.7187958 14.277551 15.956191 20.394947 24.833704 27.115044">Engine 2</tspan>
          </text>
        </g>
        <path
           inkscape:connector-curvature="0"
           id="path4288"
           style="fill:none;stroke:#0474be;stroke-width:8.33240032;stroke-linecap:round;stroke-linejoin:round;stroke-miterlimit:10;stroke-dasharray:8.3324, 16.6648;stroke-dashoffset:0;stroke-opacity:1"
           d="m 3642,814.922 0,-266 936,-133 0,532 -936,-133" />
        <path
           inkscape:connector-curvature="0"
           id="path4290"
           style="fill:none;stroke:#0474be;stroke-width:8.33240032;stroke-linecap:round;stroke-linejoin:round;stroke-miterlimit:10;stroke-dasharray:8.3324, 16.6648;stroke-dashoffset:0;stroke-opacity:1"
           d="m 3642,2185.92 0,-266 936,-132 0,531 -936,-133" />
        <path
           inkscape:connector-curvature="0"
           id="path4292"
           style="fill:#ffffff;fill-opacity:1;fill-rule:evenodd;stroke:none"
           d="m 3652,527.922 0,308 c 0,13 -10,24 -23,24 l 0,0 -1,-1 -307,0 0,1 c -13,0 -23,-11 -23,-24 l -1,0 0,-308 1,1 c 0,-13 10,-24 23,-24 l 308,0 c 13,0 23,11 23,24" />
        <path
           inkscape:connector-curvature="0"
           id="path4294"
           style="fill:none;stroke:#0474be;stroke-width:8.33240032;stroke-linecap:round;stroke-linejoin:round;stroke-miterlimit:10;stroke-dasharray:none;stroke-opacity:1"
           d="m 3652,527.922 0,308 c 0,13 -10,24 -23,24 l 0,0 -1,-1 -307,0 0,1 c -13,0 -23,-11 -23,-24 l -1,0 0,-308 1,1 c 0,-13 10,-24 23,-24 l 308,0 c 13,0 23,11 23,24 l 0,-1 z" />
        <path
           inkscape:connector-curvature="0"
           id="path4296"
           style="fill:#0473be;fill-opacity:1;fill-rule:nonzero;stroke:none"
           d="m 3574,633.922 -10,7 -135,45 c 19,-13 145,-52 145,-52" />
        <g
           id="g4298">
          <g
             clip-path="url(#clipPath4302)"
             id="g4300">
            <path
               inkscape:connector-curvature="0"
               id="path4306"
               style="fill:#0473be;fill-opacity:1;fill-rule:nonzero;stroke:none"
               d="m 3364,689.922 c 1,-1 3,-2 5,-3 16,-8 39,-7 39,-7 -4,-3 -17,-3 -27,-2 27,-17 51,-32 74,-37 15,-3 32,-1 32,-1 l -16,-4 c 65,-20 107,-7 107,-7 l 31,-6 -12,7 -13,4 -11,4 c -42,46 -110,68 -110,68 l 6,-20 c -23,32 -94,46 -94,46 -71,17 -19,-35 -11,-42 z m 200,-50 -1,-4 c 0,0 -115,37 -134,50 l 135,-46" />
          </g>
        </g>
        <path
           inkscape:connector-curvature="0"
           id="path4308"
           style="fill:#ffffff;fill-opacity:1;fill-rule:evenodd;stroke:none"
           d="m 3652,1899.92 0,307 c 0,13 -10,24 -23,24 l 0,0 -1,-1 -307,0 0,1 c -13,0 -23,-11 -23,-24 l -1,0 0,-307 1,0 c 0,-13 10,-23 23,-23 l 0,-1 307,0 1,1 c 13,0 23,10 23,23" />
        <path
           inkscape:connector-curvature="0"
           id="path4310"
           style="fill:none;stroke:#0474be;stroke-width:8.33240032;stroke-linecap:round;stroke-linejoin:round;stroke-miterlimit:10;stroke-dasharray:none;stroke-opacity:1"
           d="m 3652,1899.92 0,307 c 0,13 -10,24 -23,24 l 0,0 -1,-1 -307,0 0,1 c -13,0 -23,-11 -23,-24 l -1,0 0,-307 1,0 c 0,-13 10,-23 23,-23 l 0,-1 307,0 1,1 c 13,0 23,10 23,23 z" />
        <path
           inkscape:connector-curvature="0"
           id="path4312"
           style="fill:#0473be;fill-opacity:1;fill-rule:nonzero;stroke:none"
           d="m 3574,2005.92 -10,7 -135,45 c 19,-13 145,-52 145,-52" />
        <g
           id="g4314">
          <g
             clip-path="url(#clipPath4318)"
             id="g4316">
            <path
               inkscape:connector-curvature="0"
               id="path4322"
               style="fill:#0473be;fill-opacity:1;fill-rule:nonzero;stroke:none"
               d="m 3364,2061.92 c 1,-1 3,-2 5,-3 16,-8 39,-7 39,-7 -4,-3 -17,-3 -27,-2 27,-17 51,-32 74,-37 15,-3 32,-1 32,-1 l -16,-4 c 65,-20 107,-7 107,-7 l 31,-6 -12,7 -13,4 -11,4 c -42,46 -110,68 -110,68 l 6,-20 c -23,32 -94,46 -94,46 -71,17 -19,-35 -11,-42 z m 200,-50 -1,-4 c 0,0 -115,37 -134,50 l 135,-46" />
          </g>
        </g>
        <path
           inkscape:connector-curvature="0"
           id="path4324"
           style="fill:none;stroke:#595959;stroke-width:12.49860001;stroke-linecap:round;stroke-linejoin:round;stroke-miterlimit:10;stroke-dasharray:none;stroke-opacity:1"
           d="m 3941,1232.92 0,-491.998" />
        <path
           inkscape:connector-curvature="0"
           id="path4326"
           style="fill:#595959;fill-opacity:1;fill-rule:evenodd;stroke:none"
           d="m 3914,1225.92 27,83 28,-83 -55,0" />
        <path
           inkscape:connector-curvature="0"
           id="path4328"
           style="fill:none;stroke:#595959;stroke-width:12.49860001;stroke-linecap:round;stroke-linejoin:round;stroke-miterlimit:10;stroke-dasharray:none;stroke-opacity:1"
           d="m 3941,1918.92 0,-492" />
        <path
           inkscape:connector-curvature="0"
           id="path4330"
           style="fill:#595959;fill-opacity:1;fill-rule:evenodd;stroke:none"
           d="m 3914,1911.92 27,82 28,-82 -55,0" />
        <path
           inkscape:connector-curvature="0"
           id="path4332"
           style="fill:none;stroke:#595959;stroke-width:12.49860001;stroke-linecap:round;stroke-linejoin:round;stroke-miterlimit:10;stroke-dasharray:none;stroke-opacity:1"
           d="m 4351,1501.92 0,492" />
        <path
           inkscape:connector-curvature="0"
           id="path4334"
           style="fill:#595959;fill-opacity:1;fill-rule:evenodd;stroke:none"
           d="m 4379,1508.92 -28,-82 -27,82 55,0" />
        <path
           inkscape:connector-curvature="0"
           id="path4336"
           style="fill:none;stroke:#595959;stroke-width:12.49860001;stroke-linecap:round;stroke-linejoin:round;stroke-miterlimit:10;stroke-dasharray:none;stroke-opacity:1"
           d="m 4351,816.922 0,491.998" />
        <path
           inkscape:connector-curvature="0"
           id="path4338"
           style="fill:#595959;fill-opacity:1;fill-rule:evenodd;stroke:none"
           d="m 4379,823.922 -28,-83 -27,83 55,0" />
        <path
           inkscape:connector-curvature="0"
           id="path4340"
           style="fill:none;stroke:#595959;stroke-width:12.49860001;stroke-linecap:round;stroke-linejoin:round;stroke-miterlimit:10;stroke-dasharray:none;stroke-opacity:1"
           d="m 4076,681.922 216,0" />
        <path
           inkscape:connector-curvature="0"
           id="path4342"
           style="fill:#595959;fill-opacity:1;fill-rule:evenodd;stroke:none"
           d="m 4083,654.922 -83,27 83,28 0,-55" />
        <path
           inkscape:connector-curvature="0"
           id="path4344"
           style="fill:none;stroke:#595959;stroke-width:12.49860001;stroke-linecap:round;stroke-linejoin:round;stroke-miterlimit:10;stroke-dasharray:none;stroke-opacity:1"
           d="m 4217,2052.92 -217,0" />
        <path
           inkscape:connector-curvature="0"
           id="path4346"
           style="fill:#595959;fill-opacity:1;fill-rule:evenodd;stroke:none"
           d="m 4210,2080.92 82,-28 -82,-27 0,55" />
        <path
           inkscape:connector-curvature="0"
           id="path4348"
           style="fill:#ffffff;fill-opacity:1;fill-rule:evenodd;stroke:none"
           d="m 3942,622.922 c -33,0 -59,27 -59,59 0,33 26,60 59,60 l 0,0 c 33,0 59,-27 59,-60 0,-32 -26,-59 -59,-59" />
        <path
           inkscape:connector-curvature="0"
           id="path4350"
           style="fill:none;stroke:#595959;stroke-width:12.49860001;stroke-linecap:round;stroke-linejoin:round;stroke-miterlimit:10;stroke-dasharray:none;stroke-opacity:1"
           d="m 3942,622.922 c -33,0 -59,27 -59,59 0,33 26,60 59,60 l 0,0 c 33,0 59,-27 59,-60 0,-32 -26,-59 -59,-59 z" />
        <path
           inkscape:connector-curvature="0"
           id="path4352"
           style="fill:#ffffff;fill-opacity:1;fill-rule:evenodd;stroke:none"
           d="m 4352,622.922 c -33,0 -59,27 -59,59 0,33 26,60 59,60 l 0,0 c 32,0 59,-27 59,-60 0,-32 -27,-59 -59,-59" />
        <path
           inkscape:connector-curvature="0"
           id="path4354"
           style="fill:none;stroke:#595959;stroke-width:12.49860001;stroke-linecap:round;stroke-linejoin:round;stroke-miterlimit:10;stroke-dasharray:none;stroke-opacity:1"
           d="m 4352,622.922 c -33,0 -59,27 -59,59 0,33 26,60 59,60 l 0,0 c 32,0 59,-27 59,-60 0,-32 -27,-59 -59,-59 z" />
        <path
           inkscape:connector-curvature="0"
           id="path4356"
           style="fill:#ffffff;fill-opacity:1;fill-rule:evenodd;stroke:none"
           d="m 3942,1308.92 c -33,0 -59,26 -59,59 0,33 26,59 59,59 l 0,0 c 33,0 59,-26 59,-59 0,-33 -26,-59 -59,-59" />
        <path
           inkscape:connector-curvature="0"
           id="path4358"
           style="fill:none;stroke:#595959;stroke-width:12.49860001;stroke-linecap:round;stroke-linejoin:round;stroke-miterlimit:10;stroke-dasharray:none;stroke-opacity:1"
           d="m 3942,1308.92 c -33,0 -59,26 -59,59 0,33 26,59 59,59 l 0,0 c 33,0 59,-26 59,-59 0,-33 -26,-59 -59,-59 z" />
        <path
           inkscape:connector-curvature="0"
           id="path4360"
           style="fill:#ffffff;fill-opacity:1;fill-rule:evenodd;stroke:none"
           d="m 4352,1308.92 c -33,0 -59,26 -59,59 0,33 26,59 59,59 l 0,0 c 32,0 59,-26 59,-59 0,-33 -27,-59 -59,-59" />
        <path
           inkscape:connector-curvature="0"
           id="path4362"
           style="fill:none;stroke:#595959;stroke-width:12.49860001;stroke-linecap:round;stroke-linejoin:round;stroke-miterlimit:10;stroke-dasharray:none;stroke-opacity:1"
           d="m 4352,1308.92 c -33,0 -59,26 -59,59 0,33 26,59 59,59 l 0,0 c 32,0 59,-26 59,-59 0,-33 -27,-59 -59,-59 z" />
        <path
           inkscape:connector-curvature="0"
           id="path4364"
           style="fill:#ffffff;fill-opacity:1;fill-rule:evenodd;stroke:none"
           d="m 3942,1994.92 c -33,0 -59,26 -59,59 0,32 26,59 59,59 l 0,0 c 33,0 59,-27 59,-59 0,-33 -26,-59 -59,-59" />
        <path
           inkscape:connector-curvature="0"
           id="path4366"
           style="fill:none;stroke:#595959;stroke-width:12.49860001;stroke-linecap:round;stroke-linejoin:round;stroke-miterlimit:10;stroke-dasharray:none;stroke-opacity:1"
           d="m 3942,1994.92 c -33,0 -59,26 -59,59 0,32 26,59 59,59 l 0,0 c 33,0 59,-27 59,-59 0,-33 -26,-59 -59,-59 z" />
        <path
           inkscape:connector-curvature="0"
           id="path4368"
           style="fill:#ffffff;fill-opacity:1;fill-rule:evenodd;stroke:none"
           d="m 4352,1994.92 c -33,0 -59,26 -59,59 0,32 26,59 59,59 l 0,0 c 32,0 59,-27 59,-59 0,-33 -27,-59 -59,-59" />
        <path
           inkscape:connector-curvature="0"
           id="path4370"
           style="fill:none;stroke:#595959;stroke-width:12.49860001;stroke-linecap:round;stroke-linejoin:round;stroke-miterlimit:10;stroke-dasharray:none;stroke-opacity:1"
           d="m 4352,1994.92 c -33,0 -59,26 -59,59 0,32 26,59 59,59 l 0,0 c 32,0 59,-27 59,-59 0,-33 -27,-59 -59,-59 z" />
        <g
           transform="scale(8.33333,8.33333)"
           id="g4372">
          <text
             id="text4374"
             style="font-variant:normal;font-weight:normal;font-size:8.04418087px;font-family:Arial;-inkscape-font-specification:Arial;writing-mode:lr-tb;fill:#595959;fill-opacity:1;fill-rule:nonzero;stroke:none"
             transform="matrix(0,1,0.99948027,0,461.16,77.3906)">
            <tspan
               id="tspan4376"
               sodipodi:role="line"
               y="0"
               x="0 4.4387631 82.317375 86.756142 164.51474 168.95349">n0n1n2</tspan>
            <tspan
               id="tspan4378"
               sodipodi:role="line"
               y="77.680374"
               x="0 4.4387631 164.5195 168.95827 82.319687 86.758453">n5n3n4</tspan>
          </text>
        </g>
      </g>
    </g>
  </g>
</svg>
